<mxfile host="app.diagrams.net" modified="2023-05-24T04:03:31.715Z" agent="Mozilla/5.0 (Windows NT 10.0; Win64; x64) AppleWebKit/537.36 (KHTML, like Gecko) Chrome/113.0.0.0 Safari/537.36" etag="mQo7WeAh1pahPIOxf5PU" version="21.3.3" type="github" pages="2">
  <diagram name="Docker" id="a0oaJFji5QDftbRzg78K">
    <mxGraphModel dx="2830" dy="2427" grid="1" gridSize="10" guides="1" tooltips="1" connect="1" arrows="1" fold="1" page="1" pageScale="1" pageWidth="827" pageHeight="1169" math="0" shadow="0">
      <root>
        <mxCell id="0" />
        <mxCell id="1" parent="0" />
        <mxCell id="lQ1iWXKazuJ-khMov56M-31" value="" style="group;fontSize=20;" parent="1" vertex="1" connectable="0">
          <mxGeometry x="901" y="50" width="320" height="640" as="geometry" />
        </mxCell>
        <mxCell id="lQ1iWXKazuJ-khMov56M-16" value="&lt;b style=&quot;font-size: 20px;&quot;&gt;&lt;font color=&quot;#87ffaf&quot; style=&quot;font-size: 20px;&quot;&gt;App&lt;/font&gt;&lt;/b&gt;" style="rounded=0;whiteSpace=wrap;html=1;sketch=1;curveFitting=1;jiggle=2;shadow=0;movable=1;resizable=1;rotatable=1;deletable=1;editable=1;locked=0;connectable=1;container=0;fontSize=20;" parent="lQ1iWXKazuJ-khMov56M-31" vertex="1">
          <mxGeometry width="80" height="40" as="geometry" />
        </mxCell>
        <mxCell id="lQ1iWXKazuJ-khMov56M-17" value="&lt;b style=&quot;font-size: 20px;&quot;&gt;&lt;font color=&quot;#87ffaf&quot; style=&quot;font-size: 20px;&quot;&gt;App&lt;/font&gt;&lt;/b&gt;" style="rounded=0;whiteSpace=wrap;html=1;sketch=1;curveFitting=1;jiggle=2;shadow=0;movable=1;resizable=1;rotatable=1;deletable=1;editable=1;locked=0;connectable=1;container=0;fontSize=20;" parent="lQ1iWXKazuJ-khMov56M-31" vertex="1">
          <mxGeometry x="120" width="80" height="40" as="geometry" />
        </mxCell>
        <mxCell id="lQ1iWXKazuJ-khMov56M-18" value="" style="endArrow=none;dashed=1;html=1;dashPattern=1 3;strokeWidth=2;rounded=0;sketch=1;curveFitting=1;jiggle=2;shadow=0;movable=1;resizable=1;rotatable=1;deletable=1;editable=1;locked=0;connectable=1;fontSize=20;" parent="lQ1iWXKazuJ-khMov56M-31" edge="1">
          <mxGeometry width="50" height="50" relative="1" as="geometry">
            <mxPoint x="210" y="20" as="sourcePoint" />
            <mxPoint x="240" y="20" as="targetPoint" />
            <Array as="points">
              <mxPoint x="220" y="10" />
            </Array>
          </mxGeometry>
        </mxCell>
        <mxCell id="lQ1iWXKazuJ-khMov56M-19" value="&lt;b style=&quot;font-size: 20px;&quot;&gt;&lt;font color=&quot;#87ffaf&quot; style=&quot;font-size: 20px;&quot;&gt;App&lt;/font&gt;&lt;/b&gt;" style="rounded=0;whiteSpace=wrap;html=1;sketch=1;curveFitting=1;jiggle=2;shadow=0;movable=1;resizable=1;rotatable=1;deletable=1;editable=1;locked=0;connectable=1;container=0;fontSize=20;" parent="lQ1iWXKazuJ-khMov56M-31" vertex="1">
          <mxGeometry x="240" width="80" height="40" as="geometry" />
        </mxCell>
        <mxCell id="lQ1iWXKazuJ-khMov56M-20" value="Guest OS0" style="rounded=0;whiteSpace=wrap;html=1;sketch=1;curveFitting=1;jiggle=2;shadow=0;movable=1;resizable=1;rotatable=1;deletable=1;editable=1;locked=0;connectable=1;container=0;fontSize=20;" parent="lQ1iWXKazuJ-khMov56M-31" vertex="1">
          <mxGeometry y="80" width="320" height="40" as="geometry" />
        </mxCell>
        <mxCell id="lQ1iWXKazuJ-khMov56M-21" value="" style="rounded=0;whiteSpace=wrap;html=1;sketch=1;curveFitting=1;jiggle=2;shadow=0;movable=1;resizable=1;rotatable=1;deletable=1;editable=1;locked=0;connectable=1;container=0;fontSize=20;" parent="lQ1iWXKazuJ-khMov56M-31" vertex="1">
          <mxGeometry y="160" width="320" height="160" as="geometry" />
        </mxCell>
        <mxCell id="lQ1iWXKazuJ-khMov56M-22" value="Physical host hardware" style="rounded=0;whiteSpace=wrap;html=1;sketch=1;curveFitting=1;jiggle=2;shadow=0;movable=1;resizable=1;rotatable=1;deletable=1;editable=1;locked=0;connectable=1;container=0;fontSize=20;" parent="lQ1iWXKazuJ-khMov56M-31" vertex="1">
          <mxGeometry y="160" width="230" height="40" as="geometry" />
        </mxCell>
        <mxCell id="bngR2TSv_xNvbO2YMxAf-5" value="Process" style="rounded=1;whiteSpace=wrap;html=1;sketch=1;curveFitting=1;jiggle=2;shadow=0;movable=1;resizable=1;rotatable=1;deletable=1;editable=1;locked=0;connectable=1;container=0;fontSize=20;" parent="lQ1iWXKazuJ-khMov56M-31" vertex="1">
          <mxGeometry x="38.998571428571495" y="210" width="64.2" height="40" as="geometry" />
        </mxCell>
        <mxCell id="bngR2TSv_xNvbO2YMxAf-6" value="Memory" style="rounded=1;whiteSpace=wrap;html=1;sketch=1;curveFitting=1;jiggle=2;shadow=0;movable=1;resizable=1;rotatable=1;deletable=1;editable=1;locked=0;connectable=1;container=0;fontSize=20;" parent="lQ1iWXKazuJ-khMov56M-31" vertex="1">
          <mxGeometry x="118.22857142857151" y="210" width="64.2" height="40" as="geometry" />
        </mxCell>
        <mxCell id="bngR2TSv_xNvbO2YMxAf-7" value="Graphic" style="rounded=1;whiteSpace=wrap;html=1;sketch=1;curveFitting=1;jiggle=2;shadow=0;movable=1;resizable=1;rotatable=1;deletable=1;editable=1;locked=0;connectable=1;container=0;fontSize=20;" parent="lQ1iWXKazuJ-khMov56M-31" vertex="1">
          <mxGeometry x="198.9985714285715" y="210" width="64.2" height="40" as="geometry" />
        </mxCell>
        <mxCell id="bngR2TSv_xNvbO2YMxAf-8" value="Network" style="rounded=1;whiteSpace=wrap;html=1;sketch=1;curveFitting=1;jiggle=2;shadow=0;movable=1;resizable=1;rotatable=1;deletable=1;editable=1;locked=0;connectable=1;container=0;fontSize=20;" parent="lQ1iWXKazuJ-khMov56M-31" vertex="1">
          <mxGeometry x="48.998571428571495" y="260" width="64.2" height="40" as="geometry" />
        </mxCell>
        <mxCell id="bngR2TSv_xNvbO2YMxAf-9" value="Storage" style="rounded=1;whiteSpace=wrap;html=1;sketch=1;curveFitting=1;jiggle=2;shadow=0;movable=1;resizable=1;rotatable=1;deletable=1;editable=1;locked=0;connectable=1;container=0;fontSize=20;" parent="lQ1iWXKazuJ-khMov56M-31" vertex="1">
          <mxGeometry x="128.2285714285715" y="260" width="64.2" height="40" as="geometry" />
        </mxCell>
        <mxCell id="bngR2TSv_xNvbO2YMxAf-10" value="Keyboard" style="rounded=1;whiteSpace=wrap;html=1;sketch=1;curveFitting=1;jiggle=2;shadow=0;movable=1;resizable=1;rotatable=1;deletable=1;editable=1;locked=0;connectable=1;container=0;fontSize=20;" parent="lQ1iWXKazuJ-khMov56M-31" vertex="1">
          <mxGeometry x="208.9985714285715" y="260" width="64.2" height="40" as="geometry" />
        </mxCell>
        <mxCell id="lQ1iWXKazuJ-khMov56M-32" value="" style="group;fontSize=20;" parent="1" vertex="1" connectable="0">
          <mxGeometry x="1280" y="50" width="321" height="340" as="geometry" />
        </mxCell>
        <mxCell id="lQ1iWXKazuJ-khMov56M-33" value="&lt;b style=&quot;font-size: 20px;&quot;&gt;&lt;font color=&quot;#87ffaf&quot; style=&quot;font-size: 20px;&quot;&gt;App&lt;/font&gt;&lt;/b&gt;" style="rounded=0;whiteSpace=wrap;html=1;sketch=1;curveFitting=1;jiggle=2;shadow=0;movable=1;resizable=1;rotatable=1;deletable=1;editable=1;locked=0;connectable=1;container=0;fontSize=20;" parent="lQ1iWXKazuJ-khMov56M-32" vertex="1">
          <mxGeometry width="73.37142857142857" height="40" as="geometry" />
        </mxCell>
        <mxCell id="lQ1iWXKazuJ-khMov56M-34" value="&lt;b style=&quot;font-size: 20px;&quot;&gt;&lt;font color=&quot;#87ffaf&quot; style=&quot;font-size: 20px;&quot;&gt;App&lt;/font&gt;&lt;/b&gt;" style="rounded=0;whiteSpace=wrap;html=1;sketch=1;curveFitting=1;jiggle=2;shadow=0;movable=1;resizable=1;rotatable=1;deletable=1;editable=1;locked=0;connectable=1;container=0;fontSize=20;" parent="lQ1iWXKazuJ-khMov56M-32" vertex="1">
          <mxGeometry x="110.05714285714286" width="73.37142857142857" height="40" as="geometry" />
        </mxCell>
        <mxCell id="lQ1iWXKazuJ-khMov56M-35" value="" style="endArrow=none;dashed=1;html=1;dashPattern=1 3;strokeWidth=2;rounded=0;sketch=1;curveFitting=1;jiggle=2;shadow=0;movable=1;resizable=1;rotatable=1;deletable=1;editable=1;locked=0;connectable=1;fontSize=20;" parent="lQ1iWXKazuJ-khMov56M-32" edge="1">
          <mxGeometry width="50" height="50" relative="1" as="geometry">
            <mxPoint x="192.6" y="20" as="sourcePoint" />
            <mxPoint x="220.11428571428573" y="20" as="targetPoint" />
          </mxGeometry>
        </mxCell>
        <mxCell id="lQ1iWXKazuJ-khMov56M-36" value="&lt;b style=&quot;font-size: 20px;&quot;&gt;&lt;font color=&quot;#87ffaf&quot; style=&quot;font-size: 20px;&quot;&gt;App&lt;/font&gt;&lt;/b&gt;" style="rounded=0;whiteSpace=wrap;html=1;sketch=1;curveFitting=1;jiggle=2;shadow=0;movable=1;resizable=1;rotatable=1;deletable=1;editable=1;locked=0;connectable=1;container=0;fontSize=20;" parent="lQ1iWXKazuJ-khMov56M-32" vertex="1">
          <mxGeometry x="220.11428571428573" width="73.37142857142857" height="40" as="geometry" />
        </mxCell>
        <mxCell id="lQ1iWXKazuJ-khMov56M-37" value="Guest OS1" style="rounded=0;whiteSpace=wrap;html=1;sketch=1;curveFitting=1;jiggle=2;shadow=0;movable=1;resizable=1;rotatable=1;deletable=1;editable=1;locked=0;connectable=1;container=0;fontSize=20;" parent="lQ1iWXKazuJ-khMov56M-32" vertex="1">
          <mxGeometry y="80" width="293.48571428571427" height="40" as="geometry" />
        </mxCell>
        <mxCell id="lQ1iWXKazuJ-khMov56M-38" value="" style="rounded=0;whiteSpace=wrap;html=1;sketch=1;curveFitting=1;jiggle=2;shadow=0;movable=1;resizable=1;rotatable=1;deletable=1;editable=1;locked=0;connectable=1;container=0;fontSize=20;" parent="lQ1iWXKazuJ-khMov56M-32" vertex="1">
          <mxGeometry y="160" width="293.48571428571427" height="160" as="geometry" />
        </mxCell>
        <mxCell id="lQ1iWXKazuJ-khMov56M-39" value="Physical host hardware" style="rounded=0;whiteSpace=wrap;html=1;sketch=1;curveFitting=1;jiggle=2;shadow=0;movable=1;resizable=1;rotatable=1;deletable=1;editable=1;locked=0;connectable=1;container=0;fontSize=20;" parent="lQ1iWXKazuJ-khMov56M-32" vertex="1">
          <mxGeometry y="160" width="230" height="40" as="geometry" />
        </mxCell>
        <mxCell id="lQ1iWXKazuJ-khMov56M-40" value="Process" style="rounded=1;whiteSpace=wrap;html=1;sketch=1;curveFitting=1;jiggle=2;shadow=0;movable=1;resizable=1;rotatable=1;deletable=1;editable=1;locked=0;connectable=1;container=0;fontSize=20;" parent="lQ1iWXKazuJ-khMov56M-32" vertex="1">
          <mxGeometry x="39.99857142857143" y="210" width="64.2" height="40" as="geometry" />
        </mxCell>
        <mxCell id="lQ1iWXKazuJ-khMov56M-41" value="Memory" style="rounded=1;whiteSpace=wrap;html=1;sketch=1;curveFitting=1;jiggle=2;shadow=0;movable=1;resizable=1;rotatable=1;deletable=1;editable=1;locked=0;connectable=1;container=0;fontSize=20;" parent="lQ1iWXKazuJ-khMov56M-32" vertex="1">
          <mxGeometry x="119.22857142857143" y="210" width="64.2" height="40" as="geometry" />
        </mxCell>
        <mxCell id="lQ1iWXKazuJ-khMov56M-42" value="Graphic" style="rounded=1;whiteSpace=wrap;html=1;sketch=1;curveFitting=1;jiggle=2;shadow=0;movable=1;resizable=1;rotatable=1;deletable=1;editable=1;locked=0;connectable=1;container=0;fontSize=20;" parent="lQ1iWXKazuJ-khMov56M-32" vertex="1">
          <mxGeometry x="199.9985714285714" y="210" width="64.2" height="40" as="geometry" />
        </mxCell>
        <mxCell id="lQ1iWXKazuJ-khMov56M-43" value="Network" style="rounded=1;whiteSpace=wrap;html=1;sketch=1;curveFitting=1;jiggle=2;shadow=0;movable=1;resizable=1;rotatable=1;deletable=1;editable=1;locked=0;connectable=1;container=0;fontSize=20;" parent="lQ1iWXKazuJ-khMov56M-32" vertex="1">
          <mxGeometry x="39.99857142857143" y="250" width="64.2" height="40" as="geometry" />
        </mxCell>
        <mxCell id="lQ1iWXKazuJ-khMov56M-44" value="Storage" style="rounded=1;whiteSpace=wrap;html=1;sketch=1;curveFitting=1;jiggle=2;shadow=0;movable=1;resizable=1;rotatable=1;deletable=1;editable=1;locked=0;connectable=1;container=0;fontSize=20;" parent="lQ1iWXKazuJ-khMov56M-32" vertex="1">
          <mxGeometry x="119.22857142857143" y="250" width="64.2" height="40" as="geometry" />
        </mxCell>
        <mxCell id="lQ1iWXKazuJ-khMov56M-45" value="Keyboard" style="rounded=1;whiteSpace=wrap;html=1;sketch=1;curveFitting=1;jiggle=2;shadow=0;movable=1;resizable=1;rotatable=1;deletable=1;editable=1;locked=0;connectable=1;container=0;fontSize=20;" parent="lQ1iWXKazuJ-khMov56M-32" vertex="1">
          <mxGeometry x="199.9985714285714" y="250" width="64.2" height="40" as="geometry" />
        </mxCell>
        <mxCell id="lQ1iWXKazuJ-khMov56M-46" value="&lt;b style=&quot;font-size: 20px;&quot;&gt;VM1&lt;/b&gt;" style="text;html=1;strokeColor=none;fillColor=none;align=center;verticalAlign=middle;whiteSpace=wrap;rounded=0;fontSize=20;" parent="1" vertex="1">
          <mxGeometry x="900" y="20" width="60" height="30" as="geometry" />
        </mxCell>
        <mxCell id="lQ1iWXKazuJ-khMov56M-76" value="&lt;b style=&quot;font-size: 20px;&quot;&gt;VM2&lt;/b&gt;" style="text;html=1;strokeColor=none;fillColor=none;align=center;verticalAlign=middle;whiteSpace=wrap;rounded=0;fontSize=20;" parent="1" vertex="1">
          <mxGeometry x="1280" y="20" width="60" height="30" as="geometry" />
        </mxCell>
        <mxCell id="lQ1iWXKazuJ-khMov56M-77" value="VIRTUAL MACHINE MONITOR (VMM)" style="rounded=1;whiteSpace=wrap;html=1;fillColor=#e1d5e7;strokeColor=#9673a6;fontSize=20;" parent="1" vertex="1">
          <mxGeometry x="900" y="390" width="700" height="60" as="geometry" />
        </mxCell>
        <mxCell id="lQ1iWXKazuJ-khMov56M-86" value="" style="group;fontSize=20;" parent="1" vertex="1" connectable="0">
          <mxGeometry x="900" y="460" width="700" height="230" as="geometry" />
        </mxCell>
        <mxCell id="lQ1iWXKazuJ-khMov56M-78" value="" style="rounded=0;whiteSpace=wrap;html=1;sketch=1;curveFitting=1;jiggle=2;fontSize=20;" parent="lQ1iWXKazuJ-khMov56M-86" vertex="1">
          <mxGeometry width="700" height="230" as="geometry" />
        </mxCell>
        <mxCell id="lQ1iWXKazuJ-khMov56M-79" value="Physical host hardware" style="rounded=0;whiteSpace=wrap;html=1;sketch=1;curveFitting=1;jiggle=2;fontSize=20;" parent="lQ1iWXKazuJ-khMov56M-86" vertex="1">
          <mxGeometry width="306.25" height="28.75" as="geometry" />
        </mxCell>
        <mxCell id="lQ1iWXKazuJ-khMov56M-80" value="Process" style="rounded=1;whiteSpace=wrap;html=1;sketch=1;curveFitting=1;jiggle=2;fontSize=20;" parent="lQ1iWXKazuJ-khMov56M-86" vertex="1">
          <mxGeometry x="80.0025" y="66.995" width="153.125" height="57.5" as="geometry" />
        </mxCell>
        <mxCell id="lQ1iWXKazuJ-khMov56M-81" value="Memory" style="rounded=1;whiteSpace=wrap;html=1;sketch=1;curveFitting=1;jiggle=2;fontSize=20;" parent="lQ1iWXKazuJ-khMov56M-86" vertex="1">
          <mxGeometry x="249.9975" y="66.995" width="153.125" height="57.5" as="geometry" />
        </mxCell>
        <mxCell id="lQ1iWXKazuJ-khMov56M-82" value="Graphic" style="rounded=1;whiteSpace=wrap;html=1;sketch=1;curveFitting=1;jiggle=2;fontSize=20;" parent="lQ1iWXKazuJ-khMov56M-86" vertex="1">
          <mxGeometry x="426.5625" y="71.875" width="153.125" height="57.5" as="geometry" />
        </mxCell>
        <mxCell id="lQ1iWXKazuJ-khMov56M-83" value="Network" style="rounded=1;whiteSpace=wrap;html=1;sketch=1;curveFitting=1;jiggle=2;fontSize=20;" parent="lQ1iWXKazuJ-khMov56M-86" vertex="1">
          <mxGeometry x="80.0025" y="124.495" width="153.125" height="57.5" as="geometry" />
        </mxCell>
        <mxCell id="lQ1iWXKazuJ-khMov56M-84" value="Storage" style="rounded=1;whiteSpace=wrap;html=1;sketch=1;curveFitting=1;jiggle=2;fontSize=20;" parent="lQ1iWXKazuJ-khMov56M-86" vertex="1">
          <mxGeometry x="249.9975" y="129.375" width="153.125" height="57.5" as="geometry" />
        </mxCell>
        <mxCell id="lQ1iWXKazuJ-khMov56M-85" value="Keyboard" style="rounded=1;whiteSpace=wrap;html=1;sketch=1;curveFitting=1;jiggle=2;fontSize=20;" parent="lQ1iWXKazuJ-khMov56M-86" vertex="1">
          <mxGeometry x="426.5625" y="129.375" width="153.125" height="57.5" as="geometry" />
        </mxCell>
        <mxCell id="lQ1iWXKazuJ-khMov56M-90" value="&lt;div style=&quot;text-align: left; font-size: 20px;&quot;&gt;&lt;span style=&quot;background-color: initial; font-size: 20px; font-weight: normal;&quot;&gt;Máy ảo là công nghệ được lựa chọn để tối ưu dung lượng máy chủ.&lt;/span&gt;&lt;/div&gt;&lt;span style=&quot;font-size: 20px; font-weight: normal;&quot;&gt;&lt;div style=&quot;text-align: left; font-size: 20px;&quot;&gt;&lt;span style=&quot;background-color: initial; font-size: 20px;&quot;&gt;Lập trình mô phỏng phần cứng của một máy chủ vật lý với một HDH&lt;/span&gt;&lt;/div&gt;&lt;div style=&quot;text-align: left; font-size: 20px;&quot;&gt;&lt;span style=&quot;background-color: initial; font-size: 20px;&quot;&gt;hoàn chỉnh, cá máy ảo và (hypervisor giám sát)&amp;nbsp;&amp;nbsp;&lt;/span&gt;&lt;span style=&quot;background-color: initial; font-size: 20px;&quot;&gt;làm cho máy tính có&amp;nbsp;&lt;/span&gt;&lt;/div&gt;&lt;div style=&quot;text-align: left; font-size: 20px;&quot;&gt;&lt;span style=&quot;background-color: initial; font-size: 20px;&quot;&gt;thể chạy như nhiều máy tính với nhiều hệ điều hành khác nhau trên&amp;nbsp;&lt;/span&gt;&lt;/div&gt;&lt;div style=&quot;text-align: left; font-size: 20px;&quot;&gt;&lt;span style=&quot;background-color: initial; font-size: 20px;&quot;&gt;phần cứng của một máy chủ vật lý&lt;/span&gt;&lt;/div&gt;&lt;/span&gt;" style="text;html=1;align=center;verticalAlign=middle;resizable=0;points=[];autosize=1;strokeColor=none;fillColor=none;fontStyle=1;fontSize=20;labelBorderColor=default;" parent="1" vertex="1">
          <mxGeometry x="930" y="705" width="640" height="130" as="geometry" />
        </mxCell>
        <mxCell id="lQ1iWXKazuJ-khMov56M-92" value="" style="endArrow=none;dashed=1;html=1;dashPattern=1 3;strokeWidth=2;rounded=0;sketch=1;curveFitting=1;jiggle=2;shadow=0;movable=1;resizable=1;rotatable=1;deletable=1;editable=1;locked=0;connectable=1;exitX=1;exitY=0.5;exitDx=0;exitDy=0;entryX=0;entryY=0.5;entryDx=0;entryDy=0;fontSize=20;" parent="1" source="lQ1iWXKazuJ-khMov56M-21" target="lQ1iWXKazuJ-khMov56M-38" edge="1">
          <mxGeometry width="50" height="50" relative="1" as="geometry">
            <mxPoint x="1120" y="80" as="sourcePoint" />
            <mxPoint x="1150" y="80" as="targetPoint" />
            <Array as="points" />
          </mxGeometry>
        </mxCell>
        <mxCell id="eZhU4yZ3Bpee02jfo4mL-1" value="" style="sketch=0;pointerEvents=1;shadow=0;dashed=0;html=1;strokeColor=none;fillColor=#005F4B;labelPosition=center;verticalLabelPosition=bottom;verticalAlign=top;align=center;outlineConnect=0;shape=mxgraph.veeam2.hardware_controller;fontSize=20;" parent="1" vertex="1">
          <mxGeometry x="100" y="946.5" width="80" height="110" as="geometry" />
        </mxCell>
        <mxCell id="eZhU4yZ3Bpee02jfo4mL-3" value="&lt;div style=&quot;text-align: left; font-size: 20px;&quot;&gt;&lt;span style=&quot;font-size: 20px;&quot;&gt;&lt;b style=&quot;font-size: 20px;&quot;&gt;Hypervisor&lt;/b&gt; &amp;lt;chương trình điều khiển máy ảo&amp;gt;&lt;/span&gt;&lt;/div&gt;&lt;font style=&quot;font-size: 20px;&quot;&gt;&lt;div style=&quot;text-align: left; font-size: 20px;&quot;&gt;&lt;span style=&quot;font-size: 20px;&quot;&gt;là lớp phần mềm hoặc firmware cho phép HDH&amp;nbsp;&lt;/span&gt;&lt;/div&gt;&lt;div style=&quot;text-align: left; font-size: 20px;&quot;&gt;&lt;span style=&quot;font-size: 20px;&quot;&gt;chạy song song,&amp;nbsp;&lt;/span&gt;&lt;/div&gt;&lt;div style=&quot;text-align: left; font-size: 20px;&quot;&gt;&lt;span style=&quot;font-size: 20px;&quot;&gt;tất cả có quyền try cập vào cùng một tài nguyên.&lt;/span&gt;&lt;/div&gt;&lt;div style=&quot;text-align: left; font-size: 20px;&quot;&gt;&lt;span style=&quot;font-size: 20px;&quot;&gt;Hypervisor sắp xếp và phân tách các tài nguyên&amp;nbsp;&lt;/span&gt;&lt;/div&gt;&lt;div style=&quot;text-align: left; font-size: 20px;&quot;&gt;&lt;span style=&quot;font-size: 20px;&quot;&gt;có sẵn( sức manh, bộ nhớ, storage)&lt;/span&gt;&lt;/div&gt;&lt;div style=&quot;text-align: left; font-size: 20px;&quot;&gt;&lt;span style=&quot;font-size: 20px;&quot;&gt;căm chỉnh một phần cho mỗi máy ảo khi cần&lt;/span&gt;&lt;/div&gt;&lt;/font&gt;" style="text;html=1;align=center;verticalAlign=middle;resizable=0;points=[];autosize=1;strokeColor=none;fillColor=none;labelBackgroundColor=none;labelBorderColor=default;fontSize=20;" parent="1" vertex="1">
          <mxGeometry x="150" y="1054.5" width="450" height="180" as="geometry" />
        </mxCell>
        <mxCell id="eZhU4yZ3Bpee02jfo4mL-5" value="" style="sketch=0;outlineConnect=0;fontColor=#232F3E;gradientColor=none;fillColor=#B0084D;strokeColor=none;dashed=0;verticalLabelPosition=bottom;verticalAlign=top;align=center;html=1;fontSize=20;fontStyle=0;aspect=fixed;pointerEvents=1;shape=mxgraph.aws4.automation;" parent="1" vertex="1">
          <mxGeometry x="641" y="946.5" width="78" height="78" as="geometry" />
        </mxCell>
        <mxCell id="eZhU4yZ3Bpee02jfo4mL-6" value="Hypervisor" style="text;html=1;align=center;verticalAlign=middle;resizable=0;points=[];autosize=1;strokeColor=none;fillColor=none;fontSize=20;" parent="1" vertex="1">
          <mxGeometry x="601" y="1029.5" width="120" height="40" as="geometry" />
        </mxCell>
        <mxCell id="eZhU4yZ3Bpee02jfo4mL-7" value="OS" style="image;aspect=fixed;html=1;points=[];align=center;fontSize=20;image=img/lib/azure2/compute/OS_Images_Classic.svg;" parent="1" vertex="1">
          <mxGeometry x="1079" y="860" width="88.1" height="81.72" as="geometry" />
        </mxCell>
        <mxCell id="eZhU4yZ3Bpee02jfo4mL-11" value="" style="shape=flexArrow;endArrow=classic;html=1;rounded=0;width=6.666666666666667;endSize=10.233333333333333;fontSize=20;" parent="1" edge="1">
          <mxGeometry width="50" height="50" relative="1" as="geometry">
            <mxPoint x="760" y="990" as="sourcePoint" />
            <mxPoint x="1080" y="890" as="targetPoint" />
          </mxGeometry>
        </mxCell>
        <mxCell id="eZhU4yZ3Bpee02jfo4mL-12" value="" style="shape=flexArrow;endArrow=classic;html=1;rounded=0;endWidth=11.666666666666668;endSize=9.083333333333334;fontSize=20;" parent="1" edge="1">
          <mxGeometry width="50" height="50" relative="1" as="geometry">
            <mxPoint x="750" y="990" as="sourcePoint" />
            <mxPoint x="1080" y="996" as="targetPoint" />
          </mxGeometry>
        </mxCell>
        <mxCell id="eZhU4yZ3Bpee02jfo4mL-13" value="" style="shape=flexArrow;endArrow=classic;html=1;rounded=0;width=10;endSize=8.416666666666666;fontSize=20;" parent="1" edge="1">
          <mxGeometry width="50" height="50" relative="1" as="geometry">
            <mxPoint x="750" y="986" as="sourcePoint" />
            <mxPoint x="1080" y="1102" as="targetPoint" />
          </mxGeometry>
        </mxCell>
        <mxCell id="eZhU4yZ3Bpee02jfo4mL-14" value="" style="shape=flexArrow;endArrow=classic;html=1;rounded=0;endWidth=20;endSize=6.833333333333333;fontSize=20;" parent="1" edge="1">
          <mxGeometry width="50" height="50" relative="1" as="geometry">
            <mxPoint x="230" y="1010" as="sourcePoint" />
            <mxPoint x="570" y="1000" as="targetPoint" />
          </mxGeometry>
        </mxCell>
        <mxCell id="eZhU4yZ3Bpee02jfo4mL-15" value="OS" style="image;aspect=fixed;html=1;points=[];align=center;fontSize=20;image=img/lib/azure2/compute/OS_Images_Classic.svg;" parent="1" vertex="1">
          <mxGeometry x="1079" y="1087" width="88.1" height="81.72" as="geometry" />
        </mxCell>
        <mxCell id="eZhU4yZ3Bpee02jfo4mL-16" value="OS" style="image;aspect=fixed;html=1;points=[];align=center;fontSize=20;image=img/lib/azure2/compute/OS_Images_Classic.svg;" parent="1" vertex="1">
          <mxGeometry x="1079" y="974.78" width="88.1" height="81.72" as="geometry" />
        </mxCell>
        <mxCell id="eZhU4yZ3Bpee02jfo4mL-30" value="" style="edgeStyle=entityRelationEdgeStyle;fontSize=20;html=1;endArrow=ERmandOne;rounded=0;entryX=0.825;entryY=0.763;entryDx=0;entryDy=0;entryPerimeter=0;" parent="1" source="eZhU4yZ3Bpee02jfo4mL-3" target="eZhU4yZ3Bpee02jfo4mL-6" edge="1">
          <mxGeometry width="100" height="100" relative="1" as="geometry">
            <mxPoint x="460" y="1271" as="sourcePoint" />
            <mxPoint x="790" y="1090" as="targetPoint" />
          </mxGeometry>
        </mxCell>
        <mxCell id="eZhU4yZ3Bpee02jfo4mL-31" value="&lt;font style=&quot;font-size: 20px;&quot;&gt;ĐIỂM YẾU CỦA MÁY ẢO&lt;br style=&quot;font-size: 20px;&quot;&gt;&amp;nbsp;Về máy ảo : bao&amp;nbsp; gồm 1 HDH và bản sao ảo của tất cả phần cứng mà HDH yêu cầu, máy ảo yêu cầu tài nguyên RAM và CPU&lt;br style=&quot;font-size: 20px;&quot;&gt;&lt;br style=&quot;font-size: 20px;&quot;&gt;Gia tăng bản sao và tài nguyên cần thiết, vòng đời phát triển phức tạp hơn với máy ảo&lt;br style=&quot;font-size: 20px;&quot;&gt;&lt;br style=&quot;font-size: 20px;&quot;&gt;Di chuyển máy ảo giữa Cloud, và các trung tâm dữ liệu truyền thống trở nên phức tạp&lt;br style=&quot;font-size: 20px;&quot;&gt;&lt;/font&gt;" style="verticalAlign=top;align=left;spacingTop=8;spacingLeft=2;spacingRight=12;shape=cube;size=10;direction=south;fontStyle=4;html=1;whiteSpace=wrap;sketch=1;hachureGap=4;jiggle=2;curveFitting=1;fontFamily=Architects Daughter;fontSource=https%3A%2F%2Ffonts.googleapis.com%2Fcss%3Ffamily%3DArchitects%2BDaughter;fontSize=20;" parent="1" vertex="1">
          <mxGeometry x="-203" y="1280" width="670" height="350" as="geometry" />
        </mxCell>
        <mxCell id="eZhU4yZ3Bpee02jfo4mL-34" value="self call" style="html=1;align=left;spacingLeft=2;endArrow=block;rounded=0;edgeStyle=orthogonalEdgeStyle;curved=0;rounded=0;sketch=1;hachureGap=4;jiggle=2;curveFitting=1;fontFamily=Architects Daughter;fontSource=https%3A%2F%2Ffonts.googleapis.com%2Fcss%3Ffamily%3DArchitects%2BDaughter;fontSize=20;entryX=0;entryY=0;entryDx=170;entryDy=0;entryPerimeter=0;" parent="1" source="eZhU4yZ3Bpee02jfo4mL-33" target="eZhU4yZ3Bpee02jfo4mL-36" edge="1">
          <mxGeometry relative="1" as="geometry">
            <mxPoint x="707" y="1740" as="sourcePoint" />
            <Array as="points">
              <mxPoint x="847" y="1780" />
              <mxPoint x="847" y="1870" />
            </Array>
            <mxPoint x="557" y="1910" as="targetPoint" />
          </mxGeometry>
        </mxCell>
        <mxCell id="eZhU4yZ3Bpee02jfo4mL-35" value="" style="html=1;align=left;spacingLeft=2;endArrow=block;rounded=0;edgeStyle=orthogonalEdgeStyle;curved=0;rounded=0;sketch=1;hachureGap=4;jiggle=2;curveFitting=1;fontFamily=Architects Daughter;fontSource=https%3A%2F%2Ffonts.googleapis.com%2Fcss%3Ffamily%3DArchitects%2BDaughter;fontSize=20;exitX=0;exitY=0;exitDx=170;exitDy=0;exitPerimeter=0;" parent="1" source="eZhU4yZ3Bpee02jfo4mL-31" target="eZhU4yZ3Bpee02jfo4mL-33" edge="1">
          <mxGeometry relative="1" as="geometry">
            <mxPoint x="467" y="1450" as="sourcePoint" />
            <Array as="points">
              <mxPoint x="507" y="1450" />
              <mxPoint x="507" y="1570" />
            </Array>
            <mxPoint x="297" y="1970" as="targetPoint" />
          </mxGeometry>
        </mxCell>
        <mxCell id="eZhU4yZ3Bpee02jfo4mL-33" value="CÁCH KHẮC PHỤC" style="html=1;points=[];perimeter=orthogonalPerimeter;outlineConnect=0;targetShapes=umlLifeline;portConstraint=eastwest;newEdgeStyle={&quot;edgeStyle&quot;:&quot;elbowEdgeStyle&quot;,&quot;elbow&quot;:&quot;vertical&quot;,&quot;curved&quot;:0,&quot;rounded&quot;:0};sketch=1;hachureGap=4;jiggle=2;curveFitting=1;fontFamily=Architects Daughter;fontSource=https%3A%2F%2Ffonts.googleapis.com%2Fcss%3Ffamily%3DArchitects%2BDaughter;fontSize=20;" parent="1" vertex="1">
          <mxGeometry x="714.5" y="1540" width="183" height="60" as="geometry" />
        </mxCell>
        <mxCell id="eZhU4yZ3Bpee02jfo4mL-36" value="&lt;font&gt;Sử dụng Container , Containerization&lt;br style=&quot;font-size: 20px;&quot;&gt;&lt;br style=&quot;font-size: 20px;&quot;&gt;Tăng container phần mềm chuyển đổi từ phát triển sang triển khai phần mềm&lt;br style=&quot;font-size: 20px;&quot;&gt;&lt;br style=&quot;font-size: 20px;&quot;&gt;Container chia sẻ kernel của host OS với containers khác và phần được chia sẻ của HDH là ở trạng thái &lt;span style=&quot;font-size: 20px;&quot;&gt;read-only&amp;nbsp;&lt;br style=&quot;font-size: 20px;&quot;&gt;&lt;/span&gt;&lt;br style=&quot;font-size: 20px;&quot;&gt;-&amp;gt; Container khá nhẹ -&amp;lt; có thể triển khai trên 1 máy chủ &amp;lt;máy ảo&amp;gt;&lt;br style=&quot;font-size: 20px;&quot;&gt;không phải dành bộ nhớ cho 1 ứng dụng duy nhất.&lt;br style=&quot;font-size: 20px;&quot;&gt;&lt;br style=&quot;font-size: 20px;&quot;&gt;nếu chỉ có 1 HDH để duy trì -&amp;gt; việc mở rộng&amp;nbsp; quy mô trở nên nhanh chóng và dễ dàng mà không cần thêm không gian máy chủ...&lt;br style=&quot;font-size: 20px;&quot;&gt;&lt;/font&gt;&lt;span style=&quot;font-size: 20px;&quot;&gt;&lt;font&gt;&lt;b style=&quot;&quot;&gt;CONTAINERZATION GIẢI QUYẾT MỌI VẤN ĐỀ VỀ PHÁT TRIỂN VÀ TRIỂN KHAI PHẦN MỀM&lt;/b&gt;&lt;br&gt;&lt;br&gt;&amp;nbsp;Giảm chi phí quản lí,&amp;nbsp;&lt;br&gt;&lt;br&gt;Triển khai từ một &lt;b style=&quot;&quot;&gt;container có sẵn&lt;/b&gt;, cài đặt môi trường và sau đó lưu ở trạng thái như một &quot;&lt;b style=&quot;&quot;&gt;image&lt;/b&gt;&quot;, triển khai &lt;b style=&quot;&quot;&gt;&quot;image&quot; &lt;/b&gt;này đến kết cứ đâu&lt;br&gt;&lt;br&gt;=&amp;gt; Container &lt;b style=&quot;&quot;&gt;nhẹ và dễ dàng di chuyển&lt;/b&gt; hơn VM&lt;br&gt;&lt;/font&gt;&lt;br&gt;&lt;/span&gt;" style="verticalAlign=top;align=left;spacingTop=8;spacingLeft=2;spacingRight=12;shape=cube;size=10;direction=south;fontStyle=4;html=1;whiteSpace=wrap;sketch=1;hachureGap=4;jiggle=2;curveFitting=1;fontFamily=Architects Daughter;fontSource=https%3A%2F%2Ffonts.googleapis.com%2Fcss%3Ffamily%3DArchitects%2BDaughter;fontSize=20;" parent="1" vertex="1">
          <mxGeometry x="-203" y="1670" width="670" height="570" as="geometry" />
        </mxCell>
        <mxCell id="eZhU4yZ3Bpee02jfo4mL-37" value="" style="swimlane;startSize=0;sketch=1;hachureGap=4;jiggle=2;curveFitting=1;fontFamily=Architects Daughter;fontSource=https%3A%2F%2Ffonts.googleapis.com%2Fcss%3Ffamily%3DArchitects%2BDaughter;fontSize=20;" parent="1" vertex="1">
          <mxGeometry x="307" y="2350" width="510" height="480" as="geometry" />
        </mxCell>
        <mxCell id="eZhU4yZ3Bpee02jfo4mL-43" value="Infrastructure" style="rounded=0;whiteSpace=wrap;html=1;sketch=1;hachureGap=4;jiggle=2;curveFitting=1;fontFamily=Architects Daughter;fontSource=https%3A%2F%2Ffonts.googleapis.com%2Fcss%3Ffamily%3DArchitects%2BDaughter;fontSize=20;" parent="eZhU4yZ3Bpee02jfo4mL-37" vertex="1">
          <mxGeometry y="420" width="510" height="60" as="geometry" />
        </mxCell>
        <mxCell id="eZhU4yZ3Bpee02jfo4mL-49" value="Host Operating System" style="rounded=0;whiteSpace=wrap;html=1;sketch=1;hachureGap=4;jiggle=2;curveFitting=1;fontFamily=Architects Daughter;fontSource=https%3A%2F%2Ffonts.googleapis.com%2Fcss%3Ffamily%3DArchitects%2BDaughter;fontSize=20;" parent="eZhU4yZ3Bpee02jfo4mL-37" vertex="1">
          <mxGeometry y="360" width="510" height="60" as="geometry" />
        </mxCell>
        <mxCell id="eZhU4yZ3Bpee02jfo4mL-46" value="HyperVisor" style="rounded=0;whiteSpace=wrap;html=1;sketch=1;hachureGap=4;jiggle=2;curveFitting=1;fontFamily=Architects Daughter;fontSource=https%3A%2F%2Ffonts.googleapis.com%2Fcss%3Ffamily%3DArchitects%2BDaughter;fontSize=20;fillColor=#ffe6cc;strokeColor=#d79b00;" parent="eZhU4yZ3Bpee02jfo4mL-37" vertex="1">
          <mxGeometry y="300" width="510" height="60" as="geometry" />
        </mxCell>
        <mxCell id="eZhU4yZ3Bpee02jfo4mL-51" value="Guest OS" style="whiteSpace=wrap;html=1;aspect=fixed;sketch=1;hachureGap=4;jiggle=2;curveFitting=1;fontFamily=Architects Daughter;fontSource=https%3A%2F%2Ffonts.googleapis.com%2Fcss%3Ffamily%3DArchitects%2BDaughter;fontSize=20;fillColor=#dae8fc;strokeColor=#6c8ebf;" parent="eZhU4yZ3Bpee02jfo4mL-37" vertex="1">
          <mxGeometry y="140" width="150" height="150" as="geometry" />
        </mxCell>
        <mxCell id="eZhU4yZ3Bpee02jfo4mL-52" value="Guest OS" style="whiteSpace=wrap;html=1;aspect=fixed;sketch=1;hachureGap=4;jiggle=2;curveFitting=1;fontFamily=Architects Daughter;fontSource=https%3A%2F%2Ffonts.googleapis.com%2Fcss%3Ffamily%3DArchitects%2BDaughter;fontSize=20;fillColor=#dae8fc;strokeColor=#6c8ebf;" parent="eZhU4yZ3Bpee02jfo4mL-37" vertex="1">
          <mxGeometry x="180" y="140" width="150" height="150" as="geometry" />
        </mxCell>
        <mxCell id="eZhU4yZ3Bpee02jfo4mL-53" value="Guest Os" style="whiteSpace=wrap;html=1;aspect=fixed;sketch=1;hachureGap=4;jiggle=2;curveFitting=1;fontFamily=Architects Daughter;fontSource=https%3A%2F%2Ffonts.googleapis.com%2Fcss%3Ffamily%3DArchitects%2BDaughter;fontSize=20;fillColor=#dae8fc;strokeColor=#6c8ebf;" parent="eZhU4yZ3Bpee02jfo4mL-37" vertex="1">
          <mxGeometry x="360" y="140" width="150" height="150" as="geometry" />
        </mxCell>
        <mxCell id="eZhU4yZ3Bpee02jfo4mL-54" value="&#xa;&lt;span style=&quot;color: rgb(0, 0, 0); font-family: &amp;quot;Architects Daughter&amp;quot;; font-size: 20px; font-style: normal; font-variant-ligatures: normal; font-variant-caps: normal; font-weight: 400; letter-spacing: normal; orphans: 2; text-align: center; text-indent: 0px; text-transform: none; widows: 2; word-spacing: 0px; -webkit-text-stroke-width: 0px; background-color: rgb(251, 251, 251); text-decoration-thickness: initial; text-decoration-style: initial; text-decoration-color: initial; float: none; display: inline !important;&quot;&gt;Bins/Libs&lt;/span&gt;&#xa;&#xa;" style="rounded=1;whiteSpace=wrap;html=1;sketch=1;hachureGap=4;jiggle=2;curveFitting=1;fontFamily=Architects Daughter;fontSource=https%3A%2F%2Ffonts.googleapis.com%2Fcss%3Ffamily%3DArchitects%2BDaughter;fontSize=20;" parent="eZhU4yZ3Bpee02jfo4mL-37" vertex="1">
          <mxGeometry y="70" width="150" height="60" as="geometry" />
        </mxCell>
        <mxCell id="eZhU4yZ3Bpee02jfo4mL-58" value="&#xa;&lt;span style=&quot;color: rgb(0, 0, 0); font-family: &amp;quot;Architects Daughter&amp;quot;; font-size: 20px; font-style: normal; font-variant-ligatures: normal; font-variant-caps: normal; font-weight: 400; letter-spacing: normal; orphans: 2; text-align: center; text-indent: 0px; text-transform: none; widows: 2; word-spacing: 0px; -webkit-text-stroke-width: 0px; background-color: rgb(251, 251, 251); text-decoration-thickness: initial; text-decoration-style: initial; text-decoration-color: initial; float: none; display: inline !important;&quot;&gt;Bins/Libs&lt;/span&gt;&#xa;&#xa;" style="rounded=1;whiteSpace=wrap;html=1;sketch=1;hachureGap=4;jiggle=2;curveFitting=1;fontFamily=Architects Daughter;fontSource=https%3A%2F%2Ffonts.googleapis.com%2Fcss%3Ffamily%3DArchitects%2BDaughter;fontSize=20;" parent="eZhU4yZ3Bpee02jfo4mL-37" vertex="1">
          <mxGeometry x="180" y="70" width="150" height="60" as="geometry" />
        </mxCell>
        <mxCell id="eZhU4yZ3Bpee02jfo4mL-59" value="&#xa;&lt;span style=&quot;color: rgb(0, 0, 0); font-family: &amp;quot;Architects Daughter&amp;quot;; font-size: 20px; font-style: normal; font-variant-ligatures: normal; font-variant-caps: normal; font-weight: 400; letter-spacing: normal; orphans: 2; text-align: center; text-indent: 0px; text-transform: none; widows: 2; word-spacing: 0px; -webkit-text-stroke-width: 0px; background-color: rgb(251, 251, 251); text-decoration-thickness: initial; text-decoration-style: initial; text-decoration-color: initial; float: none; display: inline !important;&quot;&gt;Bins/Libs&lt;/span&gt;&#xa;&#xa;" style="rounded=1;whiteSpace=wrap;html=1;sketch=1;hachureGap=4;jiggle=2;curveFitting=1;fontFamily=Architects Daughter;fontSource=https%3A%2F%2Ffonts.googleapis.com%2Fcss%3Ffamily%3DArchitects%2BDaughter;fontSize=20;" parent="eZhU4yZ3Bpee02jfo4mL-37" vertex="1">
          <mxGeometry x="360" y="70" width="150" height="60" as="geometry" />
        </mxCell>
        <mxCell id="eZhU4yZ3Bpee02jfo4mL-74" value="App1" style="rounded=1;whiteSpace=wrap;html=1;sketch=1;hachureGap=4;jiggle=2;curveFitting=1;fontFamily=Architects Daughter;fontSource=https%3A%2F%2Ffonts.googleapis.com%2Fcss%3Ffamily%3DArchitects%2BDaughter;fontSize=20;" parent="eZhU4yZ3Bpee02jfo4mL-37" vertex="1">
          <mxGeometry y="2" width="150" height="60" as="geometry" />
        </mxCell>
        <mxCell id="eZhU4yZ3Bpee02jfo4mL-75" value="App2" style="rounded=1;whiteSpace=wrap;html=1;sketch=1;hachureGap=4;jiggle=2;curveFitting=1;fontFamily=Architects Daughter;fontSource=https%3A%2F%2Ffonts.googleapis.com%2Fcss%3Ffamily%3DArchitects%2BDaughter;fontSize=20;" parent="eZhU4yZ3Bpee02jfo4mL-37" vertex="1">
          <mxGeometry x="180" y="2" width="150" height="60" as="geometry" />
        </mxCell>
        <mxCell id="eZhU4yZ3Bpee02jfo4mL-76" value="App3" style="rounded=1;whiteSpace=wrap;html=1;sketch=1;hachureGap=4;jiggle=2;curveFitting=1;fontFamily=Architects Daughter;fontSource=https%3A%2F%2Ffonts.googleapis.com%2Fcss%3Ffamily%3DArchitects%2BDaughter;fontSize=20;" parent="eZhU4yZ3Bpee02jfo4mL-37" vertex="1">
          <mxGeometry x="360" y="2" width="150" height="60" as="geometry" />
        </mxCell>
        <mxCell id="eZhU4yZ3Bpee02jfo4mL-77" value="Virtual Machines" style="text;html=1;align=center;verticalAlign=middle;resizable=0;points=[];autosize=1;strokeColor=none;fillColor=none;fontSize=20;fontFamily=Architects Daughter;" parent="1" vertex="1">
          <mxGeometry x="477" y="2843" width="170" height="40" as="geometry" />
        </mxCell>
        <mxCell id="eZhU4yZ3Bpee02jfo4mL-78" value="" style="swimlane;startSize=0;sketch=1;hachureGap=4;jiggle=2;curveFitting=1;fontFamily=Architects Daughter;fontSource=https%3A%2F%2Ffonts.googleapis.com%2Fcss%3Ffamily%3DArchitects%2BDaughter;fontSize=20;" parent="1" vertex="1">
          <mxGeometry x="1100" y="2320" width="510" height="330" as="geometry" />
        </mxCell>
        <mxCell id="eZhU4yZ3Bpee02jfo4mL-79" value="Infrastructure" style="rounded=0;whiteSpace=wrap;html=1;sketch=1;hachureGap=4;jiggle=2;curveFitting=1;fontFamily=Architects Daughter;fontSource=https%3A%2F%2Ffonts.googleapis.com%2Fcss%3Ffamily%3DArchitects%2BDaughter;fontSize=20;" parent="eZhU4yZ3Bpee02jfo4mL-78" vertex="1">
          <mxGeometry y="270" width="510" height="60" as="geometry" />
        </mxCell>
        <mxCell id="eZhU4yZ3Bpee02jfo4mL-80" value="Host Operating System" style="rounded=0;whiteSpace=wrap;html=1;sketch=1;hachureGap=4;jiggle=2;curveFitting=1;fontFamily=Architects Daughter;fontSource=https%3A%2F%2Ffonts.googleapis.com%2Fcss%3Ffamily%3DArchitects%2BDaughter;fontSize=20;" parent="eZhU4yZ3Bpee02jfo4mL-78" vertex="1">
          <mxGeometry y="210" width="510" height="60" as="geometry" />
        </mxCell>
        <mxCell id="eZhU4yZ3Bpee02jfo4mL-81" value="Container Runtime" style="rounded=0;whiteSpace=wrap;html=1;sketch=1;hachureGap=4;jiggle=2;curveFitting=1;fontFamily=Architects Daughter;fontSource=https%3A%2F%2Ffonts.googleapis.com%2Fcss%3Ffamily%3DArchitects%2BDaughter;fontSize=20;fillColor=#f8cecc;strokeColor=#b85450;" parent="eZhU4yZ3Bpee02jfo4mL-78" vertex="1">
          <mxGeometry y="150" width="510" height="60" as="geometry" />
        </mxCell>
        <mxCell id="eZhU4yZ3Bpee02jfo4mL-85" value="&#xa;&lt;span style=&quot;color: rgb(0, 0, 0); font-family: &amp;quot;Architects Daughter&amp;quot;; font-size: 20px; font-style: normal; font-variant-ligatures: normal; font-variant-caps: normal; font-weight: 400; letter-spacing: normal; orphans: 2; text-align: center; text-indent: 0px; text-transform: none; widows: 2; word-spacing: 0px; -webkit-text-stroke-width: 0px; background-color: rgb(251, 251, 251); text-decoration-thickness: initial; text-decoration-style: initial; text-decoration-color: initial; float: none; display: inline !important;&quot;&gt;Bins/Libs&lt;/span&gt;&#xa;&#xa;" style="rounded=1;whiteSpace=wrap;html=1;sketch=1;hachureGap=4;jiggle=2;curveFitting=1;fontFamily=Architects Daughter;fontSource=https%3A%2F%2Ffonts.googleapis.com%2Fcss%3Ffamily%3DArchitects%2BDaughter;fontSize=20;" parent="eZhU4yZ3Bpee02jfo4mL-78" vertex="1">
          <mxGeometry y="78" width="150" height="60" as="geometry" />
        </mxCell>
        <mxCell id="eZhU4yZ3Bpee02jfo4mL-86" value="&#xa;&lt;span style=&quot;color: rgb(0, 0, 0); font-family: &amp;quot;Architects Daughter&amp;quot;; font-size: 20px; font-style: normal; font-variant-ligatures: normal; font-variant-caps: normal; font-weight: 400; letter-spacing: normal; orphans: 2; text-align: center; text-indent: 0px; text-transform: none; widows: 2; word-spacing: 0px; -webkit-text-stroke-width: 0px; background-color: rgb(251, 251, 251); text-decoration-thickness: initial; text-decoration-style: initial; text-decoration-color: initial; float: none; display: inline !important;&quot;&gt;Bins/Libs&lt;/span&gt;&#xa;&#xa;" style="rounded=1;whiteSpace=wrap;html=1;sketch=1;hachureGap=4;jiggle=2;curveFitting=1;fontFamily=Architects Daughter;fontSource=https%3A%2F%2Ffonts.googleapis.com%2Fcss%3Ffamily%3DArchitects%2BDaughter;fontSize=20;" parent="eZhU4yZ3Bpee02jfo4mL-78" vertex="1">
          <mxGeometry x="180" y="78" width="150" height="60" as="geometry" />
        </mxCell>
        <mxCell id="eZhU4yZ3Bpee02jfo4mL-87" value="&#xa;&lt;span style=&quot;color: rgb(0, 0, 0); font-family: &amp;quot;Architects Daughter&amp;quot;; font-size: 20px; font-style: normal; font-variant-ligatures: normal; font-variant-caps: normal; font-weight: 400; letter-spacing: normal; orphans: 2; text-align: center; text-indent: 0px; text-transform: none; widows: 2; word-spacing: 0px; -webkit-text-stroke-width: 0px; background-color: rgb(251, 251, 251); text-decoration-thickness: initial; text-decoration-style: initial; text-decoration-color: initial; float: none; display: inline !important;&quot;&gt;Bins/Libs&lt;/span&gt;&#xa;&#xa;" style="rounded=1;whiteSpace=wrap;html=1;sketch=1;hachureGap=4;jiggle=2;curveFitting=1;fontFamily=Architects Daughter;fontSource=https%3A%2F%2Ffonts.googleapis.com%2Fcss%3Ffamily%3DArchitects%2BDaughter;fontSize=20;" parent="eZhU4yZ3Bpee02jfo4mL-78" vertex="1">
          <mxGeometry x="360" y="78" width="150" height="60" as="geometry" />
        </mxCell>
        <mxCell id="eZhU4yZ3Bpee02jfo4mL-88" value="App1" style="rounded=1;whiteSpace=wrap;html=1;sketch=1;hachureGap=4;jiggle=2;curveFitting=1;fontFamily=Architects Daughter;fontSource=https%3A%2F%2Ffonts.googleapis.com%2Fcss%3Ffamily%3DArchitects%2BDaughter;fontSize=20;" parent="eZhU4yZ3Bpee02jfo4mL-78" vertex="1">
          <mxGeometry y="10" width="150" height="60" as="geometry" />
        </mxCell>
        <mxCell id="eZhU4yZ3Bpee02jfo4mL-89" value="App2" style="rounded=1;whiteSpace=wrap;html=1;sketch=1;hachureGap=4;jiggle=2;curveFitting=1;fontFamily=Architects Daughter;fontSource=https%3A%2F%2Ffonts.googleapis.com%2Fcss%3Ffamily%3DArchitects%2BDaughter;fontSize=20;" parent="eZhU4yZ3Bpee02jfo4mL-78" vertex="1">
          <mxGeometry x="180" y="10" width="150" height="60" as="geometry" />
        </mxCell>
        <mxCell id="eZhU4yZ3Bpee02jfo4mL-90" value="App3" style="rounded=1;whiteSpace=wrap;html=1;sketch=1;hachureGap=4;jiggle=2;curveFitting=1;fontFamily=Architects Daughter;fontSource=https%3A%2F%2Ffonts.googleapis.com%2Fcss%3Ffamily%3DArchitects%2BDaughter;fontSize=20;" parent="eZhU4yZ3Bpee02jfo4mL-78" vertex="1">
          <mxGeometry x="360" y="10" width="150" height="60" as="geometry" />
        </mxCell>
        <mxCell id="eZhU4yZ3Bpee02jfo4mL-91" value="Containers" style="text;html=1;align=center;verticalAlign=middle;resizable=0;points=[];autosize=1;strokeColor=none;fillColor=none;fontSize=20;fontFamily=Architects Daughter;" parent="1" vertex="1">
          <mxGeometry x="1280" y="2670" width="120" height="40" as="geometry" />
        </mxCell>
        <mxCell id="eZhU4yZ3Bpee02jfo4mL-96" value="virtualzation" style="rounded=1;whiteSpace=wrap;html=1;sketch=1;hachureGap=4;jiggle=2;curveFitting=1;fontFamily=Architects Daughter;fontSource=https%3A%2F%2Ffonts.googleapis.com%2Fcss%3Ffamily%3DArchitects%2BDaughter;fontSize=20;arcSize=50;" parent="1" vertex="1">
          <mxGeometry x="471" y="680" width="130" height="60" as="geometry" />
        </mxCell>
        <mxCell id="eZhU4yZ3Bpee02jfo4mL-97" value="" style="curved=1;endArrow=classic;html=1;rounded=0;sketch=1;hachureGap=4;jiggle=2;curveFitting=1;fontFamily=Architects Daughter;fontSource=https%3A%2F%2Ffonts.googleapis.com%2Fcss%3Ffamily%3DArchitects%2BDaughter;fontSize=16;exitX=1;exitY=0.5;exitDx=0;exitDy=0;entryX=-0.002;entryY=0.521;entryDx=0;entryDy=0;entryPerimeter=0;" parent="1" source="eZhU4yZ3Bpee02jfo4mL-96" target="lQ1iWXKazuJ-khMov56M-90" edge="1">
          <mxGeometry width="50" height="50" relative="1" as="geometry">
            <mxPoint x="640" y="530" as="sourcePoint" />
            <mxPoint x="690" y="480" as="targetPoint" />
            <Array as="points">
              <mxPoint x="640" y="730" />
              <mxPoint x="650" y="780" />
            </Array>
          </mxGeometry>
        </mxCell>
        <mxCell id="eZhU4yZ3Bpee02jfo4mL-99" style="edgeStyle=orthogonalEdgeStyle;rounded=0;sketch=1;hachureGap=4;jiggle=2;curveFitting=1;orthogonalLoop=1;jettySize=auto;html=1;fontFamily=Architects Daughter;fontSource=https%3A%2F%2Ffonts.googleapis.com%2Fcss%3Ffamily%3DArchitects%2BDaughter;fontSize=16;entryX=0.466;entryY=-0.001;entryDx=0;entryDy=0;entryPerimeter=0;exitX=0.999;exitY=0.54;exitDx=0;exitDy=0;exitPerimeter=0;" parent="1" source="eZhU4yZ3Bpee02jfo4mL-36" target="eZhU4yZ3Bpee02jfo4mL-78" edge="1">
          <mxGeometry relative="1" as="geometry">
            <mxPoint x="1062" y="2250" as="targetPoint" />
          </mxGeometry>
        </mxCell>
        <mxCell id="eZhU4yZ3Bpee02jfo4mL-98" value="&lt;div style=&quot;text-align: left;&quot;&gt;&lt;span style=&quot;background-color: initial;&quot;&gt;&lt;u&gt;NHƯỢC ĐIỂM CỦA CONTAINER&lt;/u&gt;&lt;/span&gt;&lt;/div&gt;&lt;div style=&quot;text-align: left;&quot;&gt;&lt;span style=&quot;background-color: initial;&quot;&gt;&lt;br&gt;&lt;/span&gt;&lt;/div&gt;&lt;div style=&quot;text-align: left;&quot;&gt;&lt;span style=&quot;background-color: initial;&quot;&gt;Chạy trên &lt;b&gt;cùng 1 HDH.&lt;/b&gt;&lt;/span&gt;&lt;/div&gt;&lt;div style=&quot;text-align: left;&quot;&gt;&lt;span style=&quot;background-color: initial;&quot;&gt;Các container dựa trên &lt;b&gt;1 HDH khác phải chạy trên 1 máy chủ lưu trữ khác&lt;/b&gt;&lt;/span&gt;&lt;/div&gt;&lt;div style=&quot;text-align: left;&quot;&gt;&lt;br&gt;&lt;/div&gt;&lt;div style=&quot;text-align: left;&quot;&gt;&lt;span style=&quot;background-color: initial;&quot;&gt;HDH &lt;b&gt;chia sẻ&lt;/b&gt; =&amp;gt; lỗ hổng bảo mật trong nhân HDH là mối đe dọa cho tất cả các container trên máy chủ&lt;/span&gt;&lt;/div&gt;" style="html=1;outlineConnect=0;whiteSpace=wrap;fillColor=#ffff99;shape=mxgraph.archimate3.application;appType=interface;archiType=square;sketch=1;hachureGap=4;jiggle=2;curveFitting=1;fontFamily=Architects Daughter;fontSource=https%3A%2F%2Ffonts.googleapis.com%2Fcss%3Ffamily%3DArchitects%2BDaughter;fontSize=20;" parent="1" vertex="1">
          <mxGeometry x="627" y="1920" width="700" height="190" as="geometry" />
        </mxCell>
        <mxCell id="eZhU4yZ3Bpee02jfo4mL-100" value="" style="curved=1;endArrow=classic;html=1;rounded=0;sketch=1;hachureGap=4;jiggle=2;curveFitting=1;fontFamily=Architects Daughter;fontSource=https%3A%2F%2Ffonts.googleapis.com%2Fcss%3Ffamily%3DArchitects%2BDaughter;fontSize=16;exitX=0;exitY=0;exitDx=190;exitDy=0;exitPerimeter=0;" parent="1" source="eZhU4yZ3Bpee02jfo4mL-36" target="eZhU4yZ3Bpee02jfo4mL-98" edge="1">
          <mxGeometry width="50" height="50" relative="1" as="geometry">
            <mxPoint x="347" y="1990" as="sourcePoint" />
            <mxPoint x="397" y="1940" as="targetPoint" />
            <Array as="points">
              <mxPoint x="487" y="1890" />
              <mxPoint x="717" y="1880" />
              <mxPoint x="677" y="1880" />
              <mxPoint x="777" y="1880" />
              <mxPoint x="727" y="1890" />
              <mxPoint x="787" y="1880" />
            </Array>
          </mxGeometry>
        </mxCell>
        <mxCell id="eZhU4yZ3Bpee02jfo4mL-95" value="without virtualzation" style="rounded=1;whiteSpace=wrap;html=1;sketch=1;hachureGap=4;jiggle=2;curveFitting=1;fontFamily=Architects Daughter;fontSource=https%3A%2F%2Ffonts.googleapis.com%2Fcss%3Ffamily%3DArchitects%2BDaughter;fontSize=20;" parent="1" vertex="1">
          <mxGeometry x="90" y="450.29" width="290" height="60" as="geometry" />
        </mxCell>
        <mxCell id="lQ1iWXKazuJ-khMov56M-1" value="&lt;b style=&quot;font-size: 20px;&quot;&gt;&lt;font color=&quot;#87ffaf&quot; style=&quot;font-size: 20px;&quot;&gt;App&lt;/font&gt;&lt;/b&gt;" style="rounded=0;whiteSpace=wrap;html=1;sketch=1;curveFitting=1;jiggle=2;fontSize=20;" parent="1" vertex="1">
          <mxGeometry x="109.28437986377746" y="49.997773109243695" width="66.79023787457523" height="48.40336134453781" as="geometry" />
        </mxCell>
        <mxCell id="lQ1iWXKazuJ-khMov56M-2" value="&lt;b style=&quot;font-size: 20px;&quot;&gt;&lt;font color=&quot;#87ffaf&quot; style=&quot;font-size: 20px;&quot;&gt;App&lt;/font&gt;&lt;/b&gt;" style="rounded=0;whiteSpace=wrap;html=1;sketch=1;curveFitting=1;jiggle=2;fontSize=20;" parent="1" vertex="1">
          <mxGeometry x="209.46973667564032" y="49.997773109243695" width="66.79023787457523" height="48.40336134453781" as="geometry" />
        </mxCell>
        <mxCell id="lQ1iWXKazuJ-khMov56M-3" value="" style="endArrow=none;dashed=1;html=1;dashPattern=1 3;strokeWidth=2;rounded=0;sketch=1;curveFitting=1;jiggle=2;fontSize=20;" parent="1" edge="1">
          <mxGeometry width="50" height="50" relative="1" as="geometry">
            <mxPoint x="284.60875428453744" y="74.1994537815126" as="sourcePoint" />
            <mxPoint x="309.65509348750317" y="74.1994537815126" as="targetPoint" />
          </mxGeometry>
        </mxCell>
        <mxCell id="lQ1iWXKazuJ-khMov56M-4" value="&lt;b style=&quot;font-size: 20px;&quot;&gt;&lt;font color=&quot;#87ffaf&quot; style=&quot;font-size: 20px;&quot;&gt;App&lt;/font&gt;&lt;/b&gt;" style="rounded=0;whiteSpace=wrap;html=1;sketch=1;curveFitting=1;jiggle=2;fontSize=20;" parent="1" vertex="1">
          <mxGeometry x="309.65509348750317" y="49.997773109243695" width="66.79023787457523" height="48.40336134453781" as="geometry" />
        </mxCell>
        <mxCell id="lQ1iWXKazuJ-khMov56M-5" value="Operating System" style="rounded=0;whiteSpace=wrap;html=1;sketch=1;curveFitting=1;jiggle=2;fontSize=20;" parent="1" vertex="1">
          <mxGeometry x="109.28437986377746" y="146.8044957983193" width="267.1609514983009" height="48.40336134453781" as="geometry" />
        </mxCell>
        <mxCell id="lQ1iWXKazuJ-khMov56M-7" value="" style="rounded=0;whiteSpace=wrap;html=1;sketch=1;curveFitting=1;jiggle=2;fontSize=20;" parent="1" vertex="1">
          <mxGeometry x="109.28437986377746" y="243.61121848739498" width="267.1609514983009" height="193.61344537815123" as="geometry" />
        </mxCell>
        <mxCell id="lQ1iWXKazuJ-khMov56M-8" value="Physical host hardware" style="rounded=0;whiteSpace=wrap;html=1;sketch=1;curveFitting=1;jiggle=2;fontSize=20;" parent="1" vertex="1">
          <mxGeometry x="109.28571428571428" y="243.60970588235296" width="167.85714285714286" height="24.20470588235294" as="geometry" />
        </mxCell>
        <mxCell id="lQ1iWXKazuJ-khMov56M-9" value="Process" style="rounded=1;whiteSpace=wrap;html=1;sketch=1;curveFitting=1;jiggle=2;fontSize=20;" parent="1" vertex="1">
          <mxGeometry x="155.20266840254794" y="304.1154201680672" width="58.44145814025333" height="48.40336134453781" as="geometry" />
        </mxCell>
        <mxCell id="lQ1iWXKazuJ-khMov56M-10" value="Memory" style="rounded=1;whiteSpace=wrap;html=1;sketch=1;curveFitting=1;jiggle=2;fontSize=20;" parent="1" vertex="1">
          <mxGeometry x="213.64412654280125" y="304.1154201680672" width="58.44145814025333" height="48.40336134453781" as="geometry" />
        </mxCell>
        <mxCell id="lQ1iWXKazuJ-khMov56M-11" value="Graphic" style="rounded=1;whiteSpace=wrap;html=1;sketch=1;curveFitting=1;jiggle=2;fontSize=20;" parent="1" vertex="1">
          <mxGeometry x="272.08558468305466" y="304.1154201680672" width="58.44145814025333" height="48.40336134453781" as="geometry" />
        </mxCell>
        <mxCell id="lQ1iWXKazuJ-khMov56M-12" value="Network" style="rounded=1;whiteSpace=wrap;html=1;sketch=1;curveFitting=1;jiggle=2;fontSize=20;" parent="1" vertex="1">
          <mxGeometry x="155.20266840254794" y="352.518781512605" width="58.44145814025333" height="48.40336134453781" as="geometry" />
        </mxCell>
        <mxCell id="lQ1iWXKazuJ-khMov56M-13" value="Storage" style="rounded=1;whiteSpace=wrap;html=1;sketch=1;curveFitting=1;jiggle=2;fontSize=20;" parent="1" vertex="1">
          <mxGeometry x="213.64412654280125" y="352.518781512605" width="58.44145814025333" height="48.40336134453781" as="geometry" />
        </mxCell>
        <mxCell id="lQ1iWXKazuJ-khMov56M-14" value="Keyboard" style="rounded=1;whiteSpace=wrap;html=1;sketch=1;curveFitting=1;jiggle=2;fontSize=20;" parent="1" vertex="1">
          <mxGeometry x="272.08558468305466" y="352.518781512605" width="58.44145814025333" height="48.40336134453781" as="geometry" />
        </mxCell>
        <mxCell id="bngR2TSv_xNvbO2YMxAf-12" value="&lt;br&gt;" style="strokeWidth=2;html=1;shape=mxgraph.flowchart.annotation_2;align=left;labelPosition=right;pointerEvents=1;sketch=1;hachureGap=4;jiggle=2;curveFitting=1;fontFamily=Architects Daughter;fontSource=https%3A%2F%2Ffonts.googleapis.com%2Fcss%3Ffamily%3DArchitects%2BDaughter;fontSize=20;rotation=0;" parent="1" vertex="1">
          <mxGeometry x="249.66000000000003" y="2515" width="50" height="100" as="geometry" />
        </mxCell>
        <mxCell id="bngR2TSv_xNvbO2YMxAf-14" value="HDH khách" style="text;html=1;align=center;verticalAlign=middle;resizable=0;points=[];autosize=1;strokeColor=none;fillColor=none;fontSize=20;fontFamily=Architects Daughter;" parent="1" vertex="1">
          <mxGeometry x="124.42" y="2520" width="120" height="40" as="geometry" />
        </mxCell>
        <mxCell id="bngR2TSv_xNvbO2YMxAf-15" value="&lt;br&gt;" style="strokeWidth=2;html=1;shape=mxgraph.flowchart.annotation_2;align=left;labelPosition=right;pointerEvents=1;sketch=1;hachureGap=4;jiggle=2;curveFitting=1;fontFamily=Architects Daughter;fontSource=https%3A%2F%2Ffonts.googleapis.com%2Fcss%3Ffamily%3DArchitects%2BDaughter;fontSize=20;rotation=0;" parent="1" vertex="1">
          <mxGeometry x="249.83000000000004" y="2425" width="50" height="50" as="geometry" />
        </mxCell>
        <mxCell id="bngR2TSv_xNvbO2YMxAf-16" value="Các tập tin/ thư viện cần thiết" style="text;html=1;align=center;verticalAlign=middle;resizable=0;points=[];autosize=1;strokeColor=none;fillColor=none;fontSize=20;fontFamily=Architects Daughter;" parent="1" vertex="1">
          <mxGeometry x="-22.860000000000014" y="2410" width="300" height="40" as="geometry" />
        </mxCell>
        <mxCell id="bngR2TSv_xNvbO2YMxAf-17" value="&lt;br&gt;" style="strokeWidth=2;html=1;shape=mxgraph.flowchart.annotation_2;align=left;labelPosition=right;pointerEvents=1;sketch=1;hachureGap=4;jiggle=2;curveFitting=1;fontFamily=Architects Daughter;fontSource=https%3A%2F%2Ffonts.googleapis.com%2Fcss%3Ffamily%3DArchitects%2BDaughter;fontSize=20;rotation=0;" parent="1" vertex="1">
          <mxGeometry x="249.66" y="2650" width="50" height="60" as="geometry" />
        </mxCell>
        <mxCell id="bngR2TSv_xNvbO2YMxAf-18" value="&lt;div style=&quot;text-align: left;&quot;&gt;&lt;span style=&quot;background-color: initial;&quot;&gt;1 máy tính siêu giám sát&amp;nbsp;&lt;/span&gt;&lt;/div&gt;&lt;div style=&quot;text-align: left;&quot;&gt;&lt;span style=&quot;background-color: initial;&quot;&gt;điều hành 1 hoặc nhiều máy tính &lt;/span&gt;&lt;span style=&quot;background-color: initial;&quot;&gt;ảo khác&amp;nbsp;&lt;/span&gt;&lt;/div&gt;&lt;div style=&quot;text-align: left;&quot;&gt;&lt;span style=&quot;background-color: initial;&quot;&gt;=&amp;gt; được gọi là máy chủ và&amp;nbsp;&lt;/span&gt;&lt;/div&gt;&lt;div style=&quot;text-align: left;&quot;&gt;&lt;span style=&quot;background-color: initial;&quot;&gt;mỗi máy ảo được gọi là máy khách&lt;/span&gt;&lt;/div&gt;" style="text;html=1;align=center;verticalAlign=middle;resizable=0;points=[];autosize=1;strokeColor=#6c8ebf;fillColor=#dae8fc;fontSize=20;fontFamily=Architects Daughter;rounded=1;" parent="1" vertex="1">
          <mxGeometry x="-290" y="2560" width="390" height="110" as="geometry" />
        </mxCell>
        <mxCell id="bngR2TSv_xNvbO2YMxAf-19" value="&lt;br&gt;" style="strokeWidth=2;html=1;shape=mxgraph.flowchart.annotation_2;align=left;labelPosition=right;pointerEvents=1;sketch=1;hachureGap=4;jiggle=2;curveFitting=1;fontFamily=Architects Daughter;fontSource=https%3A%2F%2Ffonts.googleapis.com%2Fcss%3Ffamily%3DArchitects%2BDaughter;fontSize=20;rotation=0;" parent="1" vertex="1">
          <mxGeometry x="249.65999999999997" y="2720" width="50" height="60" as="geometry" />
        </mxCell>
        <mxCell id="bngR2TSv_xNvbO2YMxAf-21" value="" style="edgeStyle=entityRelationEdgeStyle;fontSize=12;html=1;endArrow=ERzeroToOne;endFill=1;rounded=0;sketch=1;hachureGap=4;jiggle=2;curveFitting=1;fontFamily=Architects Daughter;fontSource=https%3A%2F%2Ffonts.googleapis.com%2Fcss%3Ffamily%3DArchitects%2BDaughter;exitX=1.004;exitY=0.511;exitDx=0;exitDy=0;exitPerimeter=0;entryX=0;entryY=0.5;entryDx=0;entryDy=0;entryPerimeter=0;" parent="1" source="bngR2TSv_xNvbO2YMxAf-18" target="bngR2TSv_xNvbO2YMxAf-17" edge="1">
          <mxGeometry width="100" height="100" relative="1" as="geometry">
            <mxPoint x="590" y="2600" as="sourcePoint" />
            <mxPoint x="690" y="2500" as="targetPoint" />
          </mxGeometry>
        </mxCell>
        <mxCell id="bngR2TSv_xNvbO2YMxAf-23" value="" style="edgeStyle=entityRelationEdgeStyle;fontSize=12;html=1;endArrow=ERzeroToOne;endFill=1;rounded=0;sketch=1;hachureGap=4;jiggle=2;curveFitting=1;fontFamily=Architects Daughter;fontSource=https%3A%2F%2Ffonts.googleapis.com%2Fcss%3Ffamily%3DArchitects%2BDaughter;entryX=0;entryY=0.5;entryDx=0;entryDy=0;entryPerimeter=0;" parent="1" target="bngR2TSv_xNvbO2YMxAf-19" edge="1">
          <mxGeometry width="100" height="100" relative="1" as="geometry">
            <mxPoint y="2746" as="sourcePoint" />
            <mxPoint x="240" y="2810" as="targetPoint" />
          </mxGeometry>
        </mxCell>
        <mxCell id="bngR2TSv_xNvbO2YMxAf-24" value="Hệ Điều Hành máy chủ" style="text;html=1;align=center;verticalAlign=middle;resizable=0;points=[];autosize=1;strokeColor=none;fillColor=none;fontSize=20;fontFamily=Architects Daughter;" parent="1" vertex="1">
          <mxGeometry x="17.14" y="2710" width="220" height="40" as="geometry" />
        </mxCell>
        <mxCell id="bngR2TSv_xNvbO2YMxAf-25" value="" style="edgeStyle=entityRelationEdgeStyle;fontSize=12;html=1;endArrow=ERzeroToOne;endFill=1;rounded=0;sketch=1;hachureGap=4;jiggle=2;curveFitting=1;fontFamily=Architects Daughter;fontSource=https%3A%2F%2Ffonts.googleapis.com%2Fcss%3Ffamily%3DArchitects%2BDaughter;entryX=0;entryY=0.5;entryDx=0;entryDy=0;entryPerimeter=0;" parent="1" edge="1">
          <mxGeometry width="100" height="100" relative="1" as="geometry">
            <mxPoint x="10" y="2448" as="sourcePoint" />
            <mxPoint x="260" y="2452" as="targetPoint" />
          </mxGeometry>
        </mxCell>
        <mxCell id="bngR2TSv_xNvbO2YMxAf-26" value="" style="edgeStyle=entityRelationEdgeStyle;fontSize=12;html=1;endArrow=ERzeroToOne;endFill=1;rounded=0;sketch=1;hachureGap=4;jiggle=2;curveFitting=1;fontFamily=Architects Daughter;fontSource=https%3A%2F%2Ffonts.googleapis.com%2Fcss%3Ffamily%3DArchitects%2BDaughter;entryX=0;entryY=0.5;entryDx=0;entryDy=0;entryPerimeter=0;" parent="1" edge="1">
          <mxGeometry width="100" height="100" relative="1" as="geometry">
            <mxPoint x="10" y="2560" as="sourcePoint" />
            <mxPoint x="260" y="2564" as="targetPoint" />
          </mxGeometry>
        </mxCell>
        <mxCell id="bngR2TSv_xNvbO2YMxAf-28" value="" style="edgeStyle=orthogonalEdgeStyle;rounded=0;sketch=1;hachureGap=4;jiggle=2;curveFitting=1;orthogonalLoop=1;jettySize=auto;html=1;fontFamily=Architects Daughter;fontSource=https%3A%2F%2Ffonts.googleapis.com%2Fcss%3Ffamily%3DArchitects%2BDaughter;fontSize=16;" parent="1" source="bngR2TSv_xNvbO2YMxAf-27" target="eZhU4yZ3Bpee02jfo4mL-43" edge="1">
          <mxGeometry relative="1" as="geometry" />
        </mxCell>
        <mxCell id="bngR2TSv_xNvbO2YMxAf-27" value="Cấu trúc hạ tầng" style="text;html=1;align=center;verticalAlign=middle;resizable=0;points=[];autosize=1;strokeColor=#d79b00;fillColor=#ffe6cc;fontSize=20;fontFamily=Architects Daughter;" parent="1" vertex="1">
          <mxGeometry x="100" y="2793" width="180" height="40" as="geometry" />
        </mxCell>
        <mxCell id="bngR2TSv_xNvbO2YMxAf-29" value="" style="strokeWidth=2;html=1;shape=mxgraph.flowchart.annotation_2;align=left;labelPosition=right;pointerEvents=1;sketch=1;hachureGap=4;jiggle=2;curveFitting=1;fontFamily=Architects Daughter;fontSource=https%3A%2F%2Ffonts.googleapis.com%2Fcss%3Ffamily%3DArchitects%2BDaughter;fontSize=20;" parent="1" vertex="1">
          <mxGeometry x="1050" y="2470" width="50" height="60" as="geometry" />
        </mxCell>
        <mxCell id="bngR2TSv_xNvbO2YMxAf-30" value="&lt;font style=&quot;font-size: 18px;&quot;&gt;chạy ứng dụng dưới&lt;br&gt;dạng container.&amp;nbsp;&lt;br&gt;Thường sử dụng Docker&lt;br&gt;Kubelet: giao tiếp với&lt;br&gt;Kubernetes API server,&lt;br&gt;quản lý các container&lt;/font&gt;" style="text;html=1;align=center;verticalAlign=middle;resizable=0;points=[];autosize=1;strokeColor=none;fillColor=none;fontSize=20;fontFamily=Architects Daughter;" parent="1" vertex="1">
          <mxGeometry x="850" y="2410" width="220" height="160" as="geometry" />
        </mxCell>
        <mxCell id="bngR2TSv_xNvbO2YMxAf-31" value="&lt;b&gt;&lt;font style=&quot;font-size: 32px;&quot;&gt;SO SÁNH CONTAINER VS VIRTUAL&lt;/font&gt;&lt;/b&gt;" style="rounded=1;whiteSpace=wrap;html=1;strokeWidth=2;fillWeight=4;hachureGap=8;hachureAngle=45;fillColor=#1ba1e2;sketch=1;jiggle=2;curveFitting=1;fontFamily=Architects Daughter;fontSource=https%3A%2F%2Ffonts.googleapis.com%2Fcss%3Ffamily%3DArchitects%2BDaughter;fontSize=20;" parent="1" vertex="1">
          <mxGeometry x="-370" y="-70" width="910" height="70" as="geometry" />
        </mxCell>
        <mxCell id="n3VB3tNcQO9KhlttXWaY-35" style="edgeStyle=orthogonalEdgeStyle;rounded=0;sketch=1;hachureGap=4;jiggle=2;curveFitting=1;orthogonalLoop=1;jettySize=auto;html=1;exitX=0.5;exitY=0;exitDx=0;exitDy=0;entryX=0.5;entryY=1;entryDx=0;entryDy=0;fontFamily=Architects Daughter;fontSource=https%3A%2F%2Ffonts.googleapis.com%2Fcss%3Ffamily%3DArchitects%2BDaughter;fontSize=16;" edge="1" parent="1" source="bngR2TSv_xNvbO2YMxAf-35" target="n3VB3tNcQO9KhlttXWaY-34">
          <mxGeometry relative="1" as="geometry" />
        </mxCell>
        <mxCell id="bngR2TSv_xNvbO2YMxAf-35" value="&lt;b&gt;&lt;font style=&quot;font-size: 33px;&quot;&gt;Container là gì?&lt;/font&gt;&lt;/b&gt;" style="shape=ext;double=1;rounded=0;whiteSpace=wrap;html=1;sketch=1;hachureGap=4;jiggle=2;curveFitting=1;fontFamily=Architects Daughter;fontSource=https%3A%2F%2Ffonts.googleapis.com%2Fcss%3Ffamily%3DArchitects%2BDaughter;fontSize=20;" parent="1" vertex="1">
          <mxGeometry x="-250" y="3110" width="240" height="80" as="geometry" />
        </mxCell>
        <mxCell id="bngR2TSv_xNvbO2YMxAf-43" value="&lt;b&gt;Đóng gói và vận chuyển các ứng dụng NTP đến destination&lt;/b&gt;" style="rounded=0;whiteSpace=wrap;html=1;sketch=1;hachureGap=4;jiggle=2;curveFitting=1;fontFamily=Architects Daughter;fontSource=https%3A%2F%2Ffonts.googleapis.com%2Fcss%3Ffamily%3DArchitects%2BDaughter;fontSize=20;" parent="1" vertex="1">
          <mxGeometry x="56" y="3020" width="774" height="80" as="geometry" />
        </mxCell>
        <mxCell id="bngR2TSv_xNvbO2YMxAf-44" value="&lt;b&gt;Chạy trên bất kỳ loại máy nào - Chúng không độc quyền bởi OS&amp;nbsp;&lt;/b&gt;" style="rounded=1;whiteSpace=wrap;html=1;sketch=1;hachureGap=4;jiggle=2;curveFitting=1;fontFamily=Architects Daughter;fontSource=https%3A%2F%2Ffonts.googleapis.com%2Fcss%3Ffamily%3DArchitects%2BDaughter;fontSize=20;" parent="1" vertex="1">
          <mxGeometry x="60" y="3140" width="770" height="60" as="geometry" />
        </mxCell>
        <mxCell id="bngR2TSv_xNvbO2YMxAf-45" value="" style="edgeStyle=entityRelationEdgeStyle;fontSize=12;html=1;endArrow=ERzeroToMany;endFill=1;rounded=0;sketch=1;hachureGap=4;jiggle=2;curveFitting=1;fontFamily=Architects Daughter;fontSource=https%3A%2F%2Ffonts.googleapis.com%2Fcss%3Ffamily%3DArchitects%2BDaughter;exitX=1;exitY=0.5;exitDx=0;exitDy=0;entryX=0;entryY=0.5;entryDx=0;entryDy=0;" parent="1" source="bngR2TSv_xNvbO2YMxAf-35" target="bngR2TSv_xNvbO2YMxAf-43" edge="1">
          <mxGeometry width="100" height="100" relative="1" as="geometry">
            <mxPoint x="290" y="3300" as="sourcePoint" />
            <mxPoint x="390" y="3200" as="targetPoint" />
          </mxGeometry>
        </mxCell>
        <mxCell id="bngR2TSv_xNvbO2YMxAf-46" value="" style="edgeStyle=entityRelationEdgeStyle;fontSize=12;html=1;endArrow=ERzeroToOne;startArrow=ERmandOne;rounded=0;sketch=1;hachureGap=4;jiggle=2;curveFitting=1;fontFamily=Architects Daughter;fontSource=https%3A%2F%2Ffonts.googleapis.com%2Fcss%3Ffamily%3DArchitects%2BDaughter;entryX=0;entryY=0.5;entryDx=0;entryDy=0;" parent="1" target="bngR2TSv_xNvbO2YMxAf-44" edge="1">
          <mxGeometry width="100" height="100" relative="1" as="geometry">
            <mxPoint x="-10" y="3150" as="sourcePoint" />
            <mxPoint x="390" y="3200" as="targetPoint" />
          </mxGeometry>
        </mxCell>
        <mxCell id="bngR2TSv_xNvbO2YMxAf-47" value="&lt;b&gt;Cung cấp nhanh cho NTP và LTV&lt;/b&gt;" style="rounded=1;whiteSpace=wrap;html=1;sketch=1;hachureGap=4;jiggle=2;curveFitting=1;fontFamily=Architects Daughter;fontSource=https%3A%2F%2Ffonts.googleapis.com%2Fcss%3Ffamily%3DArchitects%2BDaughter;fontSize=20;" parent="1" vertex="1">
          <mxGeometry x="56" y="3250" width="770" height="60" as="geometry" />
        </mxCell>
        <mxCell id="bngR2TSv_xNvbO2YMxAf-48" value="" style="edgeStyle=entityRelationEdgeStyle;fontSize=12;html=1;endArrow=ERzeroToOne;endFill=1;rounded=0;sketch=1;hachureGap=4;jiggle=2;curveFitting=1;fontFamily=Architects Daughter;fontSource=https%3A%2F%2Ffonts.googleapis.com%2Fcss%3Ffamily%3DArchitects%2BDaughter;entryX=0;entryY=0.5;entryDx=0;entryDy=0;" parent="1" source="bngR2TSv_xNvbO2YMxAf-35" target="bngR2TSv_xNvbO2YMxAf-47" edge="1">
          <mxGeometry width="100" height="100" relative="1" as="geometry">
            <mxPoint x="320" y="3350" as="sourcePoint" />
            <mxPoint x="420" y="3250" as="targetPoint" />
          </mxGeometry>
        </mxCell>
        <mxCell id="n3VB3tNcQO9KhlttXWaY-27" style="edgeStyle=orthogonalEdgeStyle;rounded=0;sketch=1;hachureGap=4;jiggle=2;curveFitting=1;orthogonalLoop=1;jettySize=auto;html=1;exitX=0;exitY=0.5;exitDx=0;exitDy=0;entryX=0.5;entryY=1;entryDx=0;entryDy=0;fontFamily=Architects Daughter;fontSource=https%3A%2F%2Ffonts.googleapis.com%2Fcss%3Ffamily%3DArchitects%2BDaughter;fontSize=16;" edge="1" parent="1" source="bngR2TSv_xNvbO2YMxAf-49" target="n3VB3tNcQO9KhlttXWaY-25">
          <mxGeometry relative="1" as="geometry" />
        </mxCell>
        <mxCell id="bngR2TSv_xNvbO2YMxAf-49" value="&lt;b&gt;&lt;font style=&quot;font-size: 31px;&quot;&gt;&amp;nbsp;images là gì?&lt;/font&gt;&lt;/b&gt;" style="shape=ext;double=1;rounded=0;whiteSpace=wrap;html=1;sketch=1;hachureGap=4;jiggle=2;curveFitting=1;fontFamily=Architects Daughter;fontSource=https%3A%2F%2Ffonts.googleapis.com%2Fcss%3Ffamily%3DArchitects%2BDaughter;fontSize=20;" parent="1" vertex="1">
          <mxGeometry x="-250" y="3780" width="240" height="80" as="geometry" />
        </mxCell>
        <mxCell id="n3VB3tNcQO9KhlttXWaY-1" value="&lt;b&gt;Images là 1 file read_&lt;/b&gt;" style="rounded=0;whiteSpace=wrap;html=1;sketch=1;hachureGap=4;jiggle=2;curveFitting=1;fontFamily=Architects Daughter;fontSource=https%3A%2F%2Ffonts.googleapis.com%2Fcss%3Ffamily%3DArchitects%2BDaughter;fontSize=20;" vertex="1" parent="1">
          <mxGeometry x="43" y="3700" width="774" height="80" as="geometry" />
        </mxCell>
        <mxCell id="n3VB3tNcQO9KhlttXWaY-2" value="&lt;b&gt;Chạy trên bất kỳ loại máy nào - Chúng không độc quyền bởi OS&amp;nbsp;&lt;/b&gt;" style="rounded=1;whiteSpace=wrap;html=1;sketch=1;hachureGap=4;jiggle=2;curveFitting=1;fontFamily=Architects Daughter;fontSource=https%3A%2F%2Ffonts.googleapis.com%2Fcss%3Ffamily%3DArchitects%2BDaughter;fontSize=20;" vertex="1" parent="1">
          <mxGeometry x="47" y="3820" width="770" height="60" as="geometry" />
        </mxCell>
        <mxCell id="n3VB3tNcQO9KhlttXWaY-3" value="&lt;b&gt;Cung cấp nhanh cho NTP và LTV&lt;/b&gt;" style="rounded=1;whiteSpace=wrap;html=1;sketch=1;hachureGap=4;jiggle=2;curveFitting=1;fontFamily=Architects Daughter;fontSource=https%3A%2F%2Ffonts.googleapis.com%2Fcss%3Ffamily%3DArchitects%2BDaughter;fontSize=20;" vertex="1" parent="1">
          <mxGeometry x="43" y="3930" width="770" height="60" as="geometry" />
        </mxCell>
        <mxCell id="n3VB3tNcQO9KhlttXWaY-4" value="" style="edgeStyle=entityRelationEdgeStyle;fontSize=12;html=1;endArrow=ERzeroToMany;endFill=1;rounded=0;sketch=1;hachureGap=4;jiggle=2;curveFitting=1;fontFamily=Architects Daughter;fontSource=https%3A%2F%2Ffonts.googleapis.com%2Fcss%3Ffamily%3DArchitects%2BDaughter;exitX=1;exitY=0.5;exitDx=0;exitDy=0;entryX=0;entryY=0.5;entryDx=0;entryDy=0;" edge="1" parent="1">
          <mxGeometry width="100" height="100" relative="1" as="geometry">
            <mxPoint x="-23" y="3830" as="sourcePoint" />
            <mxPoint x="43" y="3740" as="targetPoint" />
          </mxGeometry>
        </mxCell>
        <mxCell id="n3VB3tNcQO9KhlttXWaY-5" value="" style="edgeStyle=entityRelationEdgeStyle;fontSize=12;html=1;endArrow=ERzeroToOne;startArrow=ERmandOne;rounded=0;sketch=1;hachureGap=4;jiggle=2;curveFitting=1;fontFamily=Architects Daughter;fontSource=https%3A%2F%2Ffonts.googleapis.com%2Fcss%3Ffamily%3DArchitects%2BDaughter;entryX=0;entryY=0.5;entryDx=0;entryDy=0;" edge="1" parent="1">
          <mxGeometry width="100" height="100" relative="1" as="geometry">
            <mxPoint x="-23" y="3830" as="sourcePoint" />
            <mxPoint x="47" y="3850" as="targetPoint" />
          </mxGeometry>
        </mxCell>
        <mxCell id="n3VB3tNcQO9KhlttXWaY-6" value="" style="edgeStyle=entityRelationEdgeStyle;fontSize=12;html=1;endArrow=ERzeroToOne;endFill=1;rounded=0;sketch=1;hachureGap=4;jiggle=2;curveFitting=1;fontFamily=Architects Daughter;fontSource=https%3A%2F%2Ffonts.googleapis.com%2Fcss%3Ffamily%3DArchitects%2BDaughter;entryX=0;entryY=0.5;entryDx=0;entryDy=0;" edge="1" parent="1">
          <mxGeometry width="100" height="100" relative="1" as="geometry">
            <mxPoint x="-23" y="3830" as="sourcePoint" />
            <mxPoint x="43" y="3960" as="targetPoint" />
          </mxGeometry>
        </mxCell>
        <mxCell id="n3VB3tNcQO9KhlttXWaY-9" value="" style="whiteSpace=wrap;html=1;aspect=fixed;sketch=1;hachureGap=4;jiggle=2;curveFitting=1;fontFamily=Architects Daughter;fontSource=https%3A%2F%2Ffonts.googleapis.com%2Fcss%3Ffamily%3DArchitects%2BDaughter;fontSize=20;" vertex="1" parent="1">
          <mxGeometry x="920" y="3090" width="550" height="550" as="geometry" />
        </mxCell>
        <mxCell id="n3VB3tNcQO9KhlttXWaY-10" value="Container" style="rounded=1;whiteSpace=wrap;html=1;sketch=1;hachureGap=4;jiggle=2;curveFitting=1;fontFamily=Architects Daughter;fontSource=https%3A%2F%2Ffonts.googleapis.com%2Fcss%3Ffamily%3DArchitects%2BDaughter;fontSize=20;" vertex="1" parent="1">
          <mxGeometry x="960" y="3110" width="320" height="80" as="geometry" />
        </mxCell>
        <mxCell id="n3VB3tNcQO9KhlttXWaY-11" value="Image" style="rounded=1;whiteSpace=wrap;html=1;sketch=1;hachureGap=4;jiggle=2;curveFitting=1;fontFamily=Architects Daughter;fontSource=https%3A%2F%2Ffonts.googleapis.com%2Fcss%3Ffamily%3DArchitects%2BDaughter;fontSize=20;" vertex="1" parent="1">
          <mxGeometry x="960" y="3280" width="320" height="70" as="geometry" />
        </mxCell>
        <mxCell id="n3VB3tNcQO9KhlttXWaY-12" value="Image" style="rounded=1;whiteSpace=wrap;html=1;sketch=1;hachureGap=4;jiggle=2;curveFitting=1;fontFamily=Architects Daughter;fontSource=https%3A%2F%2Ffonts.googleapis.com%2Fcss%3Ffamily%3DArchitects%2BDaughter;fontSize=20;" vertex="1" parent="1">
          <mxGeometry x="960" y="3370" width="320" height="70" as="geometry" />
        </mxCell>
        <mxCell id="n3VB3tNcQO9KhlttXWaY-13" value="Image" style="rounded=1;whiteSpace=wrap;html=1;sketch=1;hachureGap=4;jiggle=2;curveFitting=1;fontFamily=Architects Daughter;fontSource=https%3A%2F%2Ffonts.googleapis.com%2Fcss%3Ffamily%3DArchitects%2BDaughter;fontSize=20;" vertex="1" parent="1">
          <mxGeometry x="960" y="3460" width="320" height="70" as="geometry" />
        </mxCell>
        <mxCell id="n3VB3tNcQO9KhlttXWaY-14" value="Image" style="rounded=1;whiteSpace=wrap;html=1;sketch=1;hachureGap=4;jiggle=2;curveFitting=1;fontFamily=Architects Daughter;fontSource=https%3A%2F%2Ffonts.googleapis.com%2Fcss%3Ffamily%3DArchitects%2BDaughter;fontSize=20;" vertex="1" parent="1">
          <mxGeometry x="963.05" y="3540" width="320" height="70" as="geometry" />
        </mxCell>
        <mxCell id="n3VB3tNcQO9KhlttXWaY-15" value="Read-Only" style="rounded=1;whiteSpace=wrap;html=1;sketch=1;hachureGap=4;jiggle=2;curveFitting=1;fontFamily=Architects Daughter;fontSource=https%3A%2F%2Ffonts.googleapis.com%2Fcss%3Ffamily%3DArchitects%2BDaughter;fontSize=20;arcSize=50;rotation=90;fillColor=#ffe6cc;strokeColor=#d79b00;" vertex="1" parent="1">
          <mxGeometry x="1190" y="3418.75" width="345" height="57.5" as="geometry" />
        </mxCell>
        <mxCell id="n3VB3tNcQO9KhlttXWaY-18" value="" style="edgeStyle=orthogonalEdgeStyle;rounded=0;sketch=1;hachureGap=4;jiggle=2;curveFitting=1;orthogonalLoop=1;jettySize=auto;html=1;fontFamily=Architects Daughter;fontSource=https%3A%2F%2Ffonts.googleapis.com%2Fcss%3Ffamily%3DArchitects%2BDaughter;fontSize=16;" edge="1" parent="1" source="n3VB3tNcQO9KhlttXWaY-17" target="n3VB3tNcQO9KhlttXWaY-15">
          <mxGeometry relative="1" as="geometry" />
        </mxCell>
        <mxCell id="n3VB3tNcQO9KhlttXWaY-17" value="Read-write" style="rounded=1;whiteSpace=wrap;html=1;sketch=1;hachureGap=4;jiggle=2;curveFitting=1;fontFamily=Architects Daughter;fontSource=https%3A%2F%2Ffonts.googleapis.com%2Fcss%3Ffamily%3DArchitects%2BDaughter;fontSize=20;fillColor=#f8cecc;strokeColor=#b85450;" vertex="1" parent="1">
          <mxGeometry x="1302.5" y="3110" width="120" height="60" as="geometry" />
        </mxCell>
        <mxCell id="n3VB3tNcQO9KhlttXWaY-21" value="" style="edgeStyle=orthogonalEdgeStyle;rounded=0;sketch=1;hachureGap=4;jiggle=2;curveFitting=1;orthogonalLoop=1;jettySize=auto;html=1;fontFamily=Architects Daughter;fontSource=https%3A%2F%2Ffonts.googleapis.com%2Fcss%3Ffamily%3DArchitects%2BDaughter;fontSize=16;entryX=0.5;entryY=1;entryDx=0;entryDy=0;" edge="1" parent="1" source="n3VB3tNcQO9KhlttXWaY-19" target="bngR2TSv_xNvbO2YMxAf-35">
          <mxGeometry relative="1" as="geometry">
            <mxPoint x="-166" y="3339" as="targetPoint" />
          </mxGeometry>
        </mxCell>
        <mxCell id="n3VB3tNcQO9KhlttXWaY-22" style="edgeStyle=orthogonalEdgeStyle;rounded=0;sketch=1;hachureGap=4;jiggle=2;curveFitting=1;orthogonalLoop=1;jettySize=auto;html=1;fontFamily=Architects Daughter;fontSource=https%3A%2F%2Ffonts.googleapis.com%2Fcss%3Ffamily%3DArchitects%2BDaughter;fontSize=16;" edge="1" parent="1" source="n3VB3tNcQO9KhlttXWaY-19" target="bngR2TSv_xNvbO2YMxAf-49">
          <mxGeometry relative="1" as="geometry" />
        </mxCell>
        <mxCell id="n3VB3tNcQO9KhlttXWaY-24" style="edgeStyle=orthogonalEdgeStyle;rounded=0;sketch=1;hachureGap=4;jiggle=2;curveFitting=1;orthogonalLoop=1;jettySize=auto;html=1;exitX=1;exitY=0.5;exitDx=0;exitDy=0;entryX=0;entryY=0.5;entryDx=0;entryDy=0;fontFamily=Architects Daughter;fontSource=https%3A%2F%2Ffonts.googleapis.com%2Fcss%3Ffamily%3DArchitects%2BDaughter;fontSize=16;" edge="1" parent="1" source="n3VB3tNcQO9KhlttXWaY-19" target="n3VB3tNcQO9KhlttXWaY-23">
          <mxGeometry relative="1" as="geometry" />
        </mxCell>
        <mxCell id="n3VB3tNcQO9KhlttXWaY-19" value="" style="shape=image;html=1;verticalAlign=top;verticalLabelPosition=bottom;labelBackgroundColor=#ffffff;imageAspect=0;aspect=fixed;image=https://cdn4.iconfinder.com/data/icons/web-and-mobile-in-square/100/WebInSquare_for_publish-08-128.png;sketch=1;hachureGap=4;jiggle=2;curveFitting=1;fontFamily=Architects Daughter;fontSource=https%3A%2F%2Ffonts.googleapis.com%2Fcss%3Ffamily%3DArchitects%2BDaughter;fontSize=20;" vertex="1" parent="1">
          <mxGeometry x="-331" y="3431" width="128" height="128" as="geometry" />
        </mxCell>
        <mxCell id="n3VB3tNcQO9KhlttXWaY-23" value="Images là 1 file bất biến-không thay đổi, chứa các source code, lib,dependencies,tools và các files khác cần thiết để chạy -&amp;gt; tính chât &lt;b&gt;read_only&lt;/b&gt; =&amp;gt; 1 snapshot tại 1 time cụ thể&lt;br&gt;&lt;br&gt;- &lt;b&gt;Docker image&lt;/b&gt; là một template chỉ chỉ &lt;b&gt;phép đọc&lt;/b&gt; và được dùng để &lt;b&gt;tạo&lt;/b&gt; container&amp;nbsp;" style="shape=step;perimeter=stepPerimeter;whiteSpace=wrap;html=1;fixedSize=1;sketch=1;hachureGap=4;jiggle=2;curveFitting=1;fontFamily=Architects Daughter;fontSource=https%3A%2F%2Ffonts.googleapis.com%2Fcss%3Ffamily%3DArchitects%2BDaughter;fontSize=20;" vertex="1" parent="1">
          <mxGeometry x="-180" y="3410" width="830" height="180" as="geometry" />
        </mxCell>
        <mxCell id="n3VB3tNcQO9KhlttXWaY-25" value="Khi &lt;b&gt;execute&lt;/b&gt; ta có 1 Container&lt;br&gt;Running on OS, manage by Docker" style="whiteSpace=wrap;html=1;align=center;verticalAlign=middle;treeFolding=1;treeMoving=1;newEdgeStyle={&quot;edgeStyle&quot;:&quot;elbowEdgeStyle&quot;,&quot;startArrow&quot;:&quot;none&quot;,&quot;endArrow&quot;:&quot;none&quot;};sketch=1;hachureGap=4;jiggle=2;curveFitting=1;fontFamily=Architects Daughter;fontSource=https%3A%2F%2Ffonts.googleapis.com%2Fcss%3Ffamily%3DArchitects%2BDaughter;fontSize=20;" vertex="1" parent="1">
          <mxGeometry x="-710" y="3400" width="360" height="60" as="geometry" />
        </mxCell>
        <mxCell id="n3VB3tNcQO9KhlttXWaY-26" value="" style="edgeStyle=elbowEdgeStyle;elbow=vertical;sourcePerimeterSpacing=0;targetPerimeterSpacing=0;startArrow=none;endArrow=none;rounded=0;curved=0;sketch=1;hachureGap=4;jiggle=2;curveFitting=1;fontFamily=Architects Daughter;fontSource=https%3A%2F%2Ffonts.googleapis.com%2Fcss%3Ffamily%3DArchitects%2BDaughter;fontSize=16;exitX=0;exitY=0.5;exitDx=0;exitDy=0;" edge="1" target="n3VB3tNcQO9KhlttXWaY-25" parent="1" source="bngR2TSv_xNvbO2YMxAf-35">
          <mxGeometry relative="1" as="geometry">
            <mxPoint x="-570" y="3359" as="sourcePoint" />
            <Array as="points">
              <mxPoint x="-530" y="3150" />
              <mxPoint x="-530" y="3180" />
              <mxPoint x="-510" y="3150" />
              <mxPoint x="-390" y="3150" />
            </Array>
          </mxGeometry>
        </mxCell>
        <mxCell id="n3VB3tNcQO9KhlttXWaY-30" value="" style="shape=image;verticalLabelPosition=bottom;labelBackgroundColor=default;verticalAlign=top;aspect=fixed;imageAspect=0;image=data:image/png,iVBORw0KGgoAAAANSUhEUgAAARUAAADXCAYAAAA0ucXpAAAAAXNSR0IArs4c6QAAAARnQU1BAACxjwv8YQUAAAAJcEhZcwAADsMAAA7DAcdvqGQAAGwpSURBVHhe7X0HgBy1+f2b2dlyxedyd+69Y+NG75jeCTUkoQYCBAghvRNIgJD8SPkT0gih9+JQQm+mGBvccO827vV85+vbZvf/nmbXGNvgXXvPuMw7y5qd0Uga6dPT92k0kpUm4MOHDx8Fgp3xffjw4aMg8EnFhw8fBYVPKj58+CgofFLx4cNHQeGTig8fPgoKn1R8+PBRUPik4sOHj4LCJxUfPnwUFDlNfksijRRdME0OsoAEz6XowrpTjue22xdyDZuPL+QaNh9fyDVsPr6Qa9h8fCHXsPn4Qq5h8/GFXMPm4wu5hs3HF3INm48v5Bp2Mz9NP0YX5E+Hv1M8TrLFOtQhdoYWkduMWgVRKOVOXsA7tFOu+e3Dh49dCJYF17INoVhqomyraSsFy945hkmOpOI5E9Bk0NNUrLT+9+HDxy4HkoolUtGhaaybuBZGTqSiPCXpvIBJBHiLFClXKosPHz52KRjusOJI2RbbrtooCYb/yxzaCZySG6koQFYzseIxWM1xnnCRDKQ3ai/mYHt8Idew+fhCrmHz8YVcw+bjC7mGzccXcg2bjy/kGjYfX8g1bD6+kGvYfHwh17D5+EKuYTfzRSGBOA+KwkgXh5GyHJKMtVPGU4QtSEUDsi4zZewxMklKOdHIbCAFu2YZUi+/hTXPvgynrhFFiWZzjw8fPnYdpGj61AUjaNe3F4ovORcYsT/bbxnZxoLreNxjp9KmbavxB8yZwmErpOI5KiFmkEeZSFJDCXyyAPW3/hGh519DoHs5EpVtEEkyM7p7M6bMyxdyDZuPL+QaNh9fyDVsPr6Qa9h8fCHXsPn4Qq5h8/GFXMPm4wu5hs3HF3INm48v5Bp2M19jnm6alsSipVhfXIQOP/0Bis79KlBcikTA01gCSbZzKgppajAtTiomc+YMTRs7zeSYcM1K1P7kViRfG4/yQ0bA6tUDyfJS2MkM1X3Ow+XkC7mGzccXcg2bjy/kGjYfX8g1bD6+kGvYfHwh17D5+EKuYfPxhVzD5uMLuYbNxxdyDbsV303H4aytRuK9KVhVvx4d/9+PED7pK0gEi0yAoAZJGS4d8G4rJLYgFf2yaO6kAy5ipLNwLIH0Y4+h4ae3oeyokag5ZDBaRUNwqM6krXjmLh8+fOwyoKqSRgjN4RSK19Wi/uVX0Nw2hQ4PPAK3dy+4AQchlwqBSMXzCootSEU0ERKp2Ak0BeIoqWnC6suuRumyRSg94UwkW5XzmktSSXjvwH348LHLQWZNIhBiA2dbXf4JGl54Frjld2h1ydeQcAJw+Odm2MTxvIJhC1KJ0YVdDeK4JBgX4Zpa1Jx7GUKhOIInnoJQk/SlGAklDdeJeDf58OFjl0HKSrHjjyLUGELacWh51GD9ww8geMOP0eo730I6qDdCGjv1xldanFSM8kF202gKpCI1VaPx9AtQTJXJOv4U2LTV7HTSsGAwpSFdHz587EpQ2zUzydwoTZ0g7OYm1D9wN4q+cwOSP/s+Im4QSSeJoBsg+ViagFtQiKh8+PDho2DIjVQyVLaZUuPDh4/dCDur/eapqfik4sPH7otdklR8+PDh44vhk4oPHz4KCp9UfPjwUVD4pOLDh4+CwicVHz58FBQ+qfjw4aOg8EnFhw8fBYVPKj58+CgofFLx4cNHQeGTig8fPgoKn1R8+PBRUPikUlCkkbLSSFoW4mkLrrZHSOkzdG/dXy2rF3fSaA5u+Q2G2UuJ95klJ/Qj68y6XJ91CmfCmg896UxYFzErhWQ6iHQiiWggyVMO0imm5dKZBTRsxs886cOyjefp9DuTnuJ16ZK253S8aTrKn9Y/RSJlbtN1LR+mBdPTij+pRY2ZhqulATNxqwRYLiqblK3fW0MmbDZfcvy3BbJxbhpWvo9dBj6pFBJsNGozNttTgA3QYkNOWg6aAwGv8SUtOIm0WYpzc2jjJ5vhLTXuDHkYl2nsmzoTLuPMOYZLsZHVR2w0OFpEi7+ZkbTSLi5CjOdMs2Miojqtom6c+CVz7EXDuBV/1jH+bFrZdPSXtklWlneTwsnX4yUcC00hh8RJctFueNn1dpQ4D1UucptDUSTEQ3QmL5l8MaktkM3vps8g38euA786CgjTcEUO7MgDahlsQO8smYc7Xn4W41ctZwMIwE7YCGrLk82hm7VC1qaNTo1Kvzd3DGeW8pQziRLBIB5//138/umHkSB5hNj6GuIx/OKef+HVqZORCLOqzeLDUUNcIgWXDV/OiIFYQWB82prFTnpu83SkIMRcC0ua6tDMzJjd73hRpDhr1RL88J4/Y37TepKcImEZiHwU/6ZssDmUpq7TKV+GsMx9W0LhTFjGmVL+A57vY9eBXxuFhml8nokQY0N+atpk/OWD9/H/Rr+ClXYCboiNYNMemA1Ct2itPTdA84DtkLqE+UumdJaNk+FlOhilQH/SQozjjRvjcrC0rh4fV62h9UHykpYQsNCjZ0+0a9cuE8aDldBmU9JCbASSNuw4I4rLgGE6hgyYB7KFXJpxmE3ulI4xOywsqq7BDf+8EzPXrDCnkvxTnouLi9GzW3eEQiEvrqRMJJtXZVZ5jd843qS1PTY6mjBOjHkh4crZUlnEf0qO/5nw0r6UBRKapTzzGRzmOxjjs2yNpH18afBJpYAwvbZaExtANARMWv0JJsyajUMPPhTTFyzG6to6b/tYeyMTmAZjOQ41DQc14RSqqEkkwjKXGA0bcCpoIyGbKkQTRoRE10D7qZZqRCIkjYOR8LIampUKIsq4ZeTolqJwEN8+5TQc3LMvgtqxLs10rAj5x0Es4mB9OoE67f3CuK0ATRqXVEZTqTloYYPjosqOo85JIhYUceh+pkXto4GksSCVZH6ZVjCABM2uNE2fHq0r8YOzLkKPYJnZjM52gnw+PiPTa2AcaxBHo7ngEakg0rCYpss8yHyK8/k2pGJojgQ2EpDYJe26LFaaV0xzrRVDPeNxaWqB+TYakY9dBoGbicyxgVfZ+p/SKolNNCPx+DMISh3t3VdKp/odVnjA7Kns41OYUlPvTpuhgY3t2RlTMHPBUvzo/Esxc/5MNNY0YOTAodQOomIM02henjoVs2qqMWfVMvzn3dfx9kcTMH/tWnRq3wHl4SKjoSwnGT04fgyWNTVh4pyZeOTt1/D2zOmoS6TQo2MXhDVwyqp6e9F8ht2AC0ccTPOHmhJVoufefhM24+gYKTOEUR8I4pn5M/DYmNH479j38B7jW8L0+3fqBJskNKNmDc2ot/HSRx/g5bFj8dHSJVgarUfXjh3RynKwasVKPD5hPN5avRihuIsVixZg8uIFaBMsonYWwKg33kDPDp1RIhJMuNgQCeKJD97D02Pewyg+w8wliwzxdenYjUQXN4TwMeN8ci6fJ+zgsTdewdPj3se4lUvhUEvqXtEeATJTjKT71vTpuH/caDz14Ri8M3MaZq9ZiXYV5WhbVERlSozuw4N6Gmp0aXYFLF8rmUB8yiQ4Bx2M9JGHkfBF2Cm2X7ZpEnXW8i0UfE2lQBChiGjTgSTFO0pNI43nx36EEw86DCe0LUef7l0wpmo1NjTHzEBkypXRADw4eya+Peop3M3G365DN7Sp6IFHJ0/GL0c9gSo3TgvGwaK1G3Dr++/gB08/jmenTEGXoftiUSKO3730Ap6eMAFRY6YkSGZJNkBVKYWG6Tclk7hr/HiMXrvUaBIbqOE8MflD/HrUk5i5eh2GDTsI5Z274aO5c2j90IBhx7FwbRU+nL0QHdt3wREHHYNP6lO4/ZVX8TAJKEHNIFQaQUc2ZBchdGzXFa16dEK7rt1RUtwaC+vrcOuEt7HIbUKa5lcjNanb3noed7z5MtbTJBt44H6YtXoNfsD0/0sy1ZsmdVxTVlfjty8/j988dD9iTgjdBg7Gm7Nn46bnR2E2w6thfLh8KX7y4nMYv3QFDh1+MAb0HYqJCxZiVXUVn9bv3HYl+KRSIIjsbanySYq4HcbkhQvQ2NCAEZWVKEo348wRw1DNnnXs3JlIaT8W0xRsBKittA4G8aNzL8BNh56M355+Hn5yxvmYtGoFnp8/Dwk2RothHDa+oZVdcccV1+G6Aw/HP751LQ7YdzAeG/cO1ptXILS3NoParKVXw0wpzTSWNtXjntdexFm9+uG+y6/Dtfsfhp8fczLuvvxatLdDiDQmcVaf/fHwdb/CtcedxTwfgluvvBaH9h9EDWkOlkUbUFbRDgf07YUKxn1Mj944f98ROLf/UHRu2857fZ2BxXyPXb+a+RuLCw8+Fv887wr8ZL8jcfc3r8aQ9h3x8OhXsSLZzBJIozjpoj1L5IaTTsNNZ56Ln408AXec8zWsq2/AksYGNARsPPn6K6glXf/80iuY76Pwvf2PxUNX/hBH07Sz49pYxseuAp9UCgQ1pzS1A9oYiDsRvELzpIKN58hDDkKUGsKQPgNQ2a4S7yyei0YNolpBrxFSQxjSoxcO6N4bwVQcoVQUR3ftxbDtMG/2ItGOR1hMYWi3buhbVIpWDXF0S1rYv98+WFBXg3EkHyCobHwG1F9IKDLHGAMb5vvTpmMt0z7+wANRyXPFbIzFTLOIzphj4QCvN+Pl+ZNxw8N/x8V3/RbX/ekmjJs3C2OWLaVZthpBmlxJsyMU9Sxtrcl7nbRGSkmoGitivBonEeIxC2EGO5faWnFzM4+jqHAcnHnoUVjIfNfqwSw+H83FUCSEoYMGIBJvQiTWgD6VZWbAOcZ8a8D5uMMZBzWvp8a+gdfWzMa0mqVodKTeKw6TnI9dBD6pFAoU7ISZoBLEnKoqvLVgLlbV1uBfL76E37zyP9z3wstoDobx8rypWEszwaINZDkkAjbAEt5bzHYYC9pU/120LYogXEzNg9f0hkZN1JUWxKYcoElEnjH7WHcrLafWY7GxL9sapxh4u9CpoTtYvGwVwqWtUVlewVOMlU5mmswxxVlD0+2f772IW0Y9jLbdOuLwA4bjiBFD0YsmUpRkIX3ASig3NK80iEyzJEkR0tsdUwCbochNI5JOwXZIOsFEZnPwAEpCISRJJk46pEdEUyiFGH2N1hn1yk6zLL03SnYqgaJYFMf16Yufn3I6mtasx43//jeuvf8u/PqlJzGtrgouycfHrgOfVAoGNk7+n2CjmMEefdmGGpSXlWDyJ3MxbslSzFy6GA7bSzNL/ANqMdrP1qKmopch8t0UG5yZ/WWhrrkBG6ix1AdduCQqTWTTUIkhCBFB0CGZBFG7rgaOm0KXru3Z/Fw2SREQwzOMeXOUuUdvpZRGn07dkGxoxvr1NQzp8GIAgaTyQa2J+aiJNePV8eNxzshjcfPx5+HnB56MX4w8C/uW0jjh9WRm/kgk7pAEacC5DpxkiHkgQTICvSqXQCkfHlKIBtJYH6G+xEcLJphvho262jZX2+syv/TjfD7N6wnxmk0NzFKm+dtmTBGaRsEEiZa/LjrocPz13G/hvit+jBsuvAIfzJuH//f0U2gSI/rYZZCtfR87CDXcSBOwLhLAkx+Nw2Gdu+OBb12JJ668Ei9c+W08fOXVeO5bV+Hobv3w9Lw51Arihgg083bi0mV4Z9VitvEYG1kQL65cgsZVdTi0ez+SVIxmgGu0idnLV2JxQwwuG/OaZBM+WD4fPVqX46he+xpNJEhnBRKIUmuxEiGzwaRDjSDCxukGojhhyD6oYCN/YfZELGJTTFBzSlJbWEdiStoSBRtNfI56tvSo28zfLuasXYX3ly8wnx4EeE3zYwyB0p/WtI7kF8QGhqMeQo0jjbArIgtQs7JQZoURYp6e/Gg8agNhmmEBLKbW8syHH6JLqxIUmRQdml8sCb0+Vtw0hTTWlEpHGD6CQKKYmlAIM9avxppYAsURC0M7tsUxPbrhkBGDsLy+keW45XiSjy8PPqkUChpLoCqycuVyVC9fihP3HY7O4VIU00wpSdIUYMNpw+I+kKbE6iWfYMK86YiV2KhjQ6xJxXDXM4/h75PG4c53XsPdzz2DoV274fihQ6j604Sg9ZCiYvFh1RLc8Mzd+Nuyibjh+YcwduYknHXAwegYZK/uxhCMxdCGJoet726kNdAvTSQRZm9vs7fvXlSGK449Ee/OnInvPPpv/HPxePxp0uv4wSN3Y3WqCcGwg/1798dLb4/GH19/Gf+cPQ43PPY3NMXrUUFNp5iNWipLeVkxurRtg7teGIVLH7gTlz7+b3y4YA61kRSCvJ6ykmYGb58enXHukUfhtdHv4jdPP4KH5k7FDQ/+G/NWfoJLTjsN7UgscWpjTTT5St0knATj1xs0aUHJFPWPBOpDCdS2CeOPr7yMS//xF/zfmLfx30Vz8bunH8Pb4yZieP/eCEjd87HLwJ+nUkgEbCyn6dOlvBKH9R+IzsFiNg4aAyw6zV+x4kl06dQZHduUY2iHjmhVUoTnp0xBdxLNRUceg7cmT8a8hYtw0n6H4JoTTkYvO8TyTmNJTQ2envkxjh48HCf3G4wX3hxNAgGuHnkKzt7vQBRbmu9B4goVoV/HjhjQobMZYtFbo7KSUuzbtSs6l5bRVAH69+iOLrxeW1uL18eORayhCccO2g/7demGtkxvYJc+KLYjeH/aVKxZX4VzDj8CZw87FEd36onhPXuguCSE1qEw+vbojZ5l7dGvsiv6tu+E/dt3RLvWbdCluDUOopZWSnmRJjKif3+Ul5Zi4ZJleGvKJPTt3QvfPGYkzho4HKWNzBA1k0BpGL3bdcAI5iFCmaPUwQmHqM20wsFduqO1U4RIqBRt23bArAWL8N7Ej9AqUoKvHHEYLjr0aFSkbTMXx0cWKsEvb55Kbhu0n/E1Chr17+NOYu+RhL9B++eADSJJYpGzNRaQZCmyDNPsjdM0d+w4zRA7iGQoglA0yl46iSufeJSkU4S7LrwctckGNDbG0KmkDTWMKGxqMKlQEO8uWIILn7gPl+13FG457Tysa1hvBKKChGEpDE0eNk+eo/lDIklrcNRUq740Zo1REwhTy7CpxUjjQboYDazptc31aBWOoILpBxIeMeljwUbbwppoM8KMq1OIxKbORXVOVtLU/UhCA780OWieqINBOkFBStGcopZEE8eOee+dNKZiK32WR1U8jjpqTW3KStCGcYSivI/lo+GQBPOUcoJmkluAedT4jJE/mkPmY8YUuzLLQTLooJr5bGTZFBcF0cah6cQ4zYeL/rDKRqjsZEJuvkF75Lrr4f78h/4G7bsVKN9Ogo0uniChJL3KYqWZAVOVNBtTgGp+yFxLw6Xaro//1PhCbhxdacL0LgshQlNEakW0SBPSFLGHaCpOkkihvCiE8mIKhNvIsxSfRJhxslHSfLCjdGycus9iA5VJFGB65tMA3mvZvJ5uRisSQa+iMCrYoC0rSuJTwyYVODFqC43ozePODg0QkkmS4S3EEaIJVaTp/nwO29Vr5EZEgzWIh6opvEwjwGt8Bovmj6bbNxWLDxJ8lBg6Mr7+kSDaR2MIkWBcO46GEhfNIZpMNHXCPB8gEaubUqOwSBQpphmlSpags60m9rC1aG/F0JOmVSXTKoqTUFlubCM+diH4pFJIaJ0UM9jIf5pfoeOAazxHkk/tDmyolsYOqGm41CyO6tQJh3UoZ6PUVPugMVGCalS8HnKL+DuIdq2KcXbfPhjSvi2cFBupiEQNW72zeY2tsQje7zBNDdLqml6rmIQthKhpGG2DWoiVCtNn/HQBmihmiQYRF8lNRCdeCEhlZv4txh1iHJqgZ2w4Jahr1BpoD/O6voYO8rGLedniMypfDKc0mcciMqnFNKFXvvIVB59fxzbLoigVRFhvofTtk8olwDwxiKVMMH6b5UF9mNEpDsYlLUj5VlokTvMcvFeP6WPXAavQR0GhBrop1FiNZ/7nPzo2BvXHAaoTFx53Ci489kTzHY2qQ+G8kB4RyJDo37Ezfn/JlTjvkCNMz/xZdZUtStqOcfyZuWa87LmM5/2fdZ/CC8Z80leaJq9MxCjRNEU8IfHObUxch/T0WYCdIiGYe71zgo71fF5cikF+xvFY58UdhhDMKf0n6IQHUwYmjsyvTL4MMsHMrZ/e4mMXgE8qXwZY6prlGmKDKaY5URRjR53MNqpPoZEFmUgRmgetGl2UauIrW6EmrPnwsavCJ5UvAyQUqfo0RqBvemz1vht76s9Cb9ikMWiWmPQW/dYbIR8+dlX4pPIlQxq9GwASWxlsFM3oLVLadpGMuEgFXVgpOZ9UfOy68EnlS4FI4VOXHbvYKsz4C53YJzum8DlaTc7IxpV1elXkOkBSOpAGjJM8z3B6beXDR57wpeZLw2cJ5XMnEspU4p/Dhm/e4OwooRgojoxTnPSTaa0wp/kg/GkIhc6Hj+2ATyp7I0QcgsiDxzK/Jq5ajClrVsLV61tDNLr2OUTnw8cXwCeVvRCGMzxFCW7KNV8Sj/5kLt5bNA8xzSfR9G0TwIeP/OGTyl6IjZaNpS+5gA3RRjw3cRyen/ghGrRurDGz0vR8YvGRP3IkFc/2N682jRhmj33sjrBTmc3AXBeBQBATFy/C0oZ6LKzbgKlLl7GKqa24FrQui489BxovyyqpmniocfiMoVtQ5EQqHqGk2HnJMTd0PqnsvtAGYVJGtKdPzA7gmanTUOWmsC4Rx7NTJyIZDptwWvDJx54BtVZ9f6YZzEYRZdV6qwIWHjlqKj72KFj66C+OeAj4uHYNJixfpi7DfKE+fukCTG1YhZiTMpPzfPjIF9smFaOVaEAv22v5gra7Q18TawJdkv3Xx4sXYF11NQUhgDD/X7uuCpOWzEMyFGClZ27wsVtDm7DJFWY6wraRg6ZCJZiEYrJjPgzzzZ7dGaq9hE0VJRlEc2095k6fiiuPPgGtgw4qgxFcdcRJWDhxGmIxLW3pmz+7PTI8Ij6x9bW4BKCFm/BWScWbbpXhECeEUI9uqKlag1R9Fc9R0NJB2BRKb9DWd7uXS1P5pHCx6stCRfjWqV/B5SOPQ0nAQmkwiEtPOBXf5DmtOWeWb9hqHL7bpZ2sC1fr9mpFvCSqFs01OzxGevX6tF1Le6HXEthi5bdN4V2ie+89LLn8anTt0hnW8YegOdweJQ1FcMMNXkAfuw0kSNr2I2lrN0MXaSuERckETrzjFhSzJ3v5x79CN5fCyHrX9h/+TP3dD1qLx0Up4uH1KF2+DDUvj0Zy+CBU3H030K7cM4VaENskFZOBhhrE//oAGu/8N9muLSIHDYJVVAGE6XzsfhCZONqtR6u1OFjoxnH0X/8P2pF49Hd/gm5adS2obTWCcBJaadbHboW0i1R0BZJrV6Hx7akItO6I0rtuhn3UEUjbwS+XVLJopujZzbVoeuRxRP96H9qtXAGnXRncslZeAOVRsWyPL+QaNh9fyDVsPr6Qa9h8fCHXsPn4wqbneGClI4g7rjb+g9Z+XURt5KsT30cRe7iH9jscA6Jxqshxs1ePWaJpa3ELm58rhC/kGjYfX8g1bD6+kGvYfHwh17Cb+Zr2Ya9dh8Z4GsmRh6H4B9cgedChiNghrbPX4siJVFyGsLWIc7QR6TWfwB07AbVPv4RIoj4TYitPlrMv5Bo2H1/INWw+vpBr2Hx8Idew+fjCpud4lC5BPOAipCUUUg6WUDP56vsvw7Zt/OvEU7FPPAmH2owmMwTMK6CtxS1sfq4QvpBr2Hx8Idew+fhCrmHz8YVcw37W1xYn6NobJZefAwwYAKu0I5JaAFtLdDJESyMnUtGCzlHmM8EcFbve+qexVBIRrYbuY/eDdgULsFIT9OMBrKqrxfBDRyJsW/j4o3fRrm2ZN0GKmovlD6rsdlDdxaiGhmwHzY6DOM+VsW8w4+47oTpzIxVC48oKqPcGgn6b/HnkuP2+kGvYfHwh17D5+EKuYfPxhVzD5uMLWztnkDbbjq5eswYjRuwHhwI4ZcpkVFRUfDbo5vfLFzY/VwhfyDVsPr6Qa9h8fCHXsPn4Qq5ht+Jn26d+Zo91eWcgZ95SwCyhCBtvzOZ0e30h17D5+LmE2R5fyDVsPn4uYbbHF7Z2zoAnzLms6Ml5+EzQze+Xv7VzhfCFXMPm4+cSZnt8Idew+fi5hPkCP9s+9VPtNnt5ZyBnUvHhw4ePXOCTig8fPgoKn1R8+PBRUOQ0UGtCWPqwMIFUOkUmCnvn7KhOZ94UbJ8v5Bo2H1/INWw+vpBr2Hx8Idew+fjCZ86xFs3+gVbMnEyng1izZgX23+8AOKEQJn78ESralcNOawW4NNJ2cqtxC5ufK4Qv5Bo2H1/INWw+vpBr2Hx8IdewWV8DJ2qXlmUjmQ7xZ5xtVd/thWGmRkuFYJiWRo5vfxIUxmYSig03FUEsGsD8uetRXdXMp+BlZXR7fSHXsPn4Qq5h8/GFXMPm4wu5hs3HFzY9pwN9+xOIUwBJKskANtStxbevPRtWIIy/3/002rSqhKOpAxRI80Z5a3ELm58rhC/kGjYfX8g1bD6+kGvYfHwh17Cb+OlUGnbAQp+B7dC+QzHCwSRsy+UlBdL3ei1vnOSoqahXA9asTeOZZ6fg1denY9aslWio9qbx58RLPnYhiFQaWKfarjTCnq4KVeuf4u8itKk4C1aqCwLpKIWRHYkRRB+7A7JtUR/99uxRir79K3HNtadi+IgKFBUlSCfapXvTd7gtgy8kFS15oFmWbhKYNqUKP/zhg5gzL4puvQahokM52rZuhaDjmMWTfexOYK9F09WmGSSCibmL8d9nruJREb5y7l0I2v0ZIkEhjVI7bXkh9FE4aHP9aDSO9Ws2YNnSJWhsWoZLLjscN/zwGJS3DnjbSLUwctJUlq2K45vf/DcWzo3iggsuQu++HWBTrdISCPo2yVdUdjOovmxvdEWT3xrii/Drnx6DYKAEt97+MkKRnhQML9ynM1d87C4wTTqQRkONi/ffnYj33h+FG2++ANdefSCVgEygFsRWSCU7/y7NXiqJVCKIe+77mJl6BpddegUGD+6NpJvgnUkKZCTDKDuB/nwUDmZkz3AGrICL+ualuPnnJyNohXH7H/4H2+nGa7anSnt3+NhtwFplj5AOaIA9iFQyjcceeRINDasx6qlvo0fPIloftCw0EG8qt/DtdyujNtm+SYv5uEjEXDzz+BgM6HcAevfphkQyxfMBEoo+iZdwMgqpK77bjZxXw6p923FV0zD/W6pbsDfTogiUA/VqW73fd7uuU5MOwHLDbMLeoO3xJxyHVStcvPnqTHNOC4kaiE9aAFshlU9hM5OuyywkE2jXtg3CYc/c8bF7Q4qKkIjHMG/2FISdRpBHyDUaeG/E3HlTKHtR9i/+WNnuDlV1+/ZtEAyG0NTUaM7lMOKxQ/hCUlHSdmaDcDugpelajNx87ESYTcJYl6lEDK+/MgpvvPwI1eR6pN1GvPrqo3j1lcd5MUnh+ELx8LEbQPyRSqm70FrTXuttuYUkPfhSsxcibXkmT6uSYhx28DC8+vLDaG5ci/r6FXjpxQdw1BH7o8gp8pc98LFdyFFqMswmz+jO5kBnfOyGUE8lM1a9WM/u/VDergIBK0VNNIX2HTuia/eecFnPmY7Nh4+8kCOpZN5DaVszwbw98O3t3RWWmXvikjQcdO42HB27jWCdOjxfhK5dD0ZFpyFIWrZnJvnwkSd8/XZvRIYrNGAXjwEnn3Q+ikraIVJajuNP/AoS8QDSrk2SkUbqw0d+8Ellr4XHLJq23aPrEJSW9UJZ6z7o3HUQNZigN/PSV1R8bAd8UtmLoXGVFDWScLADDjnoXBx2xAUIhipJJp5YmCkPPnzkCV9s9mJooFYaiW2HMXy/kzBo0FHUUiJISUuxNGfFHzfzkT98UtkLYUZKaOKkySiJABAji3ToMgSduuxjxt8dY/ZoVq3/MaGP/OGTio8MDNX48LHD8EnFhw8fBYVPKj58+CgofFLx4cNHQeGTyi4O8+2fHLS2iRYxzk4e0cmU5zbOOfk0TPa+LxNpS2sb84/5MMsqyH3JefLR8vBJZXeBZrdq/sjGWa7Z36rCzLktwny5sMzUf++bWOPL7RpZ89GC8EllV0dW3ZBHZ5nf0kj4f1ZJMUEyBxt/E1+yqmKlLATsFAKBmMmKbQjmy82Tj5aHTyq7PLxGaL4qtuMIhOoRCDbDTSVgs/bktJSBE2oGnFrYgV1nwpq2+Phk8UeYO380HJo+ARGLTyp7PHxS2eXh2Qv6YjgQbMJTz96JN956AmDvr+aZSqfZdBvw2puP4N/33ox5iz7+0jWULFxE8fqb9+K55++ixkKyY7bSRr3ysSfDJ5VdHTQZ+M8McAb43+wpb2PRgkns+R3+TpE/FuGF536DF5+9D+279ESXHh3gpr0GLG4JuGmoPes4ZSfh0iWDJCJjPykBsxpthogUMAlLK+3zumbXSvHRWiu67tK3nDhC2hOIoZO8hZeNSWalkia6zOqncJgHi3HZ9IO6FkggafjRI0kfey58UtkN4C3/aLGRB9hYkwgG2LjZUJGuxmOP3YGx776E88+/HKef9k2EghU0iQLUalzEkkvRFJuApqY5iMYWwQnUm3EOoy2QoOLNa5BMLObxOjQ3f4KmxqVw0Ixo0yok4usYTzXPz0RDwywk4+sR0hor8YAyZIjLYhoJt5r3LUBz01zEYytofiUyi2hbJB0SSCqEQMoxhMTsE77I7enwa3g3hJWidpFegbvv+wUmTPgIX//ar3Ds0ReywRdR0SgiX8Qwdeb/8Ne/fRe/+OXX8csbz8Kf/3wJFs4ZjWCCmgP5yG2uwn/+9Uvc/Y/r8cKz/4df33ge/u/3P0C0YT3uu+dXuP8/N+D552/Dr276Gm781Tdx9z9/jqYNi6l12Ihrb16nmRrT2/jPP7+PG3/5Nfz6l9/A72+7FNOmPEtSqUE0bVMr2gmbzPjY5eCTym4IN9GA+++/BbNnj8bFl1yPQw85H0mSSVB/rNFZs97CQ7zepqwCl196F664/FZUVnbDvff8H1atnGw0HTvdhERiJebMHofmxg24/OqrcNGl1yAQCKI5uhjTp7+FlOvg8stvw1fPvxZLl4/HI4//gjrIGthOCosXTsJD/7kVQasJV1xxLa6+6nsYNLAXHrn/d7z2ERxqMf6clL0TPqnshpg4cTQ++vBlHHX0MTj80LMRTwQ9c0TjL+kGfDztGVRWFOHKb/4aQw44AcP2PwvfuOjnKGndFv977T6kAy5SNEVSNFEGDDwIl1z8a+wz6Kvo2/84WivUdEIxDB12BM75ys8wcN8zcPhRX8dxp5yCZSvngEYMiSSG2VPeQdhO4Morf8qwX8OQ4V/H+eddj949euDVFx5EwG2CY/ussjfCJ5XdBGZ4gk7jK4MHDcXA/iPw4ZgPMXnS+7CCcSSpFqTZiNesnYkZ00cjEglj/rxZmDbneUye9hqWr1yMktJSNMdqWOspahwhxpdGMFSOgNMJbrINySkAl0Tjph2EwpUIFrUhhaSQTGkluLa0u2heoRjrq5Zh0sevMYyF+QuXYNL0DzFx8iQsXrIExZEgYs21iDhJxhlXzj2ncSEDn2j2dPiksovDe1fivQFySRpyZW3747pr7kT3Tr3xwEM/wYxZb1D7IBnwWrSxGU01cTTXN1GjeRtTPhyLaRPfwcRxY9G+vD+GDT3WvLaxkhHWfiO0ZIriDlhxhBzAsajxpEqQ0gQYK4lAOkaTykUgVUw6qKNLYEOiEVUNC9GYqMfkiRMxferzmDrlWXw0/g2EWpVj6P4nkKAiNKUYuV4hyRli0aP4pLKnwyeV3QLZhigGcBDnz3BZd1x51R3o1nkIHrz3Jsyc/hQJIIF2rQaha7fB6NCpE82fm3D5JX/GNy+7A5ddejsuvfQ2HHfct6lBBBmXjbR5r5xhFTPdX8geb/o7E87cA7Rp3RG9+oxA27KuuOryn+HKi/6Kyy+9A5de9n/45hV/wKlnfBtx0IwycWfjUjz0TFw+9mRkJcfHLg41Zi1SbSGCFI8Tbhihkr649IpfkkQ64bGHbsXHk59H2/alGDx8P8xbMAfTZo6jXlGHhLUOcWs1Fi2bjLmLpnhrz7Jx2zbJJWXD0utqS3ErHV0M0NwRiYgIMqSg89rag79bFXfA8H1PxepVKzBu4nMkuZVMpwFxtwnLVizFjNlTGTxOw0nzXbTvNqPYuDFZ1vexp8Kv4V0dm5gLGohNmbkqKQQz80BK2/XHN791O3p3PxSPP/InvPvh0zjiiK+hc6eDce/9v8btt1+M2393Ef5w+2W4997fYNniKSQG6hA0b1xaJSIovaXR1pgGJA1pMHLeVsoiE/42lGOTiHie1w7e7zwMGjASjz5+F277/aX43e2X4A+/vwr/uOs3mD19IsI0xSxG7MWfISgfewUCNxOZ4wzUrYhr9NF6Csm4jUcfnYhISQcMHNSDgibhoNMsS5+Tdgo8i0GaBWi6bEC/ngPQocMApAJBuNQqiiIdMKjfQQgFE4inkujR5VgcfsiJKGuTQDhUhsry9uhQ2R3HH3MeDhp+IuuV2g7r0Xaq0b37YHTuOJxV6dVrOu3CterRrWt/dOmo7TpEJDbJoRFt2hWjV4/DtLwtigJtMWLIEaio7Mx4iphGBO0r2uPoI0/BUYedDjvVivlmGukGdOvUBV16HcC4HP7OPo+PFofpkNQJpDDm/Qk49KCOOOSwntQeXZ7NbhC48b+CgZ3J5rMJNNFaCWqCVQLRegennPJPtGk/BGedeyQScWZAUmFrRqc/uWlnQbXENgonQKrfVLPIQNdsW0TvXfPCk3I0WEoaEdKst2QyZUwSQeFl+rhJaSJeHIJjVr5WWO+3oKn4DsnETVBIjT3jBQ6Q6DTHLZ3dI1VpuN79itsmi4gME7zPx06GBshVH4kkbr/tH/jBd4bhhh8eTfM3ztqJZMJ4dVVI+KrGbgI1eBFFnI3TNdriZ6FrqZQ0Cpov2fZNs0PEkCRpyMnc2VSAXNc253UqSyiCCED3bXpOhKQOxeOOTeIgvyQTn6aR3CINC3F1RD72GvikspvBvOn9nDYqpXNzxTN7bmvXsvHo9KaXsuc3TWfr5zxthEdbjV/Q5U3v8bHnwyeV3Qjb0zizDX9Ttyn0M+s2hwZZs8jyxaa8sSlZbS1uhd00vI+9Az6p+PDho6DYPUhlY2/HA7O2h0YQ/S5wS0hTyMV9DlS2dox+wivezy3ircW5Nbc3Y/MC/MIC3aOwe5DKRvnkgZmEpbdOe7vQFhiSd5VtKsjjgF+8OwwV4KaFuPnvPRe7lfmTrRLzRnPvIP2dgo3jHqYzlUhkxGLvaAMtA1OW3oEZauKxkdu9ALsVqZj5EXYKtqO1xfaSGmphZAnFCrimXLMNwMPGAx/bATugdYUpq5bWE07tNRy9e5BKRra1UnxN7VLMmvsBAo5PKjuKLKE4tCbnLRyP+Z9MILlogop33ldVdgAsOjuQwvSZ41DfsIry6u41xblbkIoZRtFBugljxzyDGZNfRdBpYuZ5ltxivkzhoflywMc2oYm32i1QCzVp7lsyFcXsOa9izqy3qaJHDdm4tgs3oPVQfOSGDENn/DSiLMQ0Jo1/ER+Ne5ayGWCZbzJFeQ/G7qGpkDFcM8MzjkkTXsHMaW9j9eqFRlVPmxmc6gUMu/jIAV4xpY346zgWr8IH7z6N8eNeQirRZM55HxD6BZobPkso8gOOjZUrlmL2jDfx8aT/sfOLk6z3jvLcLUjFdi1EQsCkiaOxbt1cVFXPw4qV85BKJ1l5CsHKJOF43zH42Ba8UrIMZYRoRi6YOxZNjatQu2Ex5s77iGSdpDZjk6e17oqP7YHKbsWKKTTX52HZiqmYPuN9hGzvm6s9HTmRSnbWZCr70dhOhtdnxrFo0STEY2uotdThzbefof3flBlR93vUfOB1mPyPZRe049RSnmS51qI5Wo2xHzyPUIimJQna5+j8Ie3ZWx6iGaPffZCF3Yx40wYsXf4+zxu1euNY1p6K3UNTsVxUrfsEY8e8yFqjHZRKYeXKaVixZhaJRQME7AHS4Wxr8ZEjHBbb0k9mYsXSaaDFz941hfkLJrNsWa5pfcnqI194HXAKy1fMxOp1kymrQRJNBKPfeQjrq5dkQu3Z2AqpSEUTlaZYOBoKpbDZ2iAqodbNRp2hWbPwjo5b3qWtKGYvHINEMo1gsAh2wEJdzWp8+OGrsIMxL5zo34zUfvZe323pTJ2CpqPdiEWfTEZdUw1/sz5tGw1N1Vi0bBaCYda3WQZj63H4blMn+s18VMmWorc+4z56GQ211aa9OHYQiTgJe9FYBLQRnJYNUedonLSXrcW5o86DFkrX6+xP+1sdqNkbFZ8ofNexJalkUtdiPZYuk3X1nt2YPrymLJp8mHB0O+pvKwxdim7SlI9w4dd/gs6dhsBygjjmhAtRX5dCTTUrLhuPwaf3bRFXIfxcwmyPn0uY7fE3P2ccK54dRlNtLaZMnYpzz78eRcUdUVraAV+9+Nv44KOpaGiWpiLx2Oz+TeP5vGs74ucSZnv8XMJsr59pxzJ9Ak6aGskqmpLNOPqoS8y5Pr0H4rwzf43pM6azHWkukM07M/cbZI4/E+dWzuXqm+MMDKmQQnjO7O1muIT1asisZbAlqWSQfXDbsdG7ZzfMmzEf69c0UBiloSjfzKpya37sgL+tMIQWar7g3Btw9BHnGHXSsUpw7JEX4bSTr0Iw0JZhNy1Q7x6DbcW9PX4uYbbHF3INm4+/+TlCeorWWtH2HOefez2OOORC/i6jMJTi8IPPwAXnfMes3Pbpu3xz02d94fOu7YifS5jt8YVcw+brG/HztBSRRjAUxumnXEZ5/QbLsBiJRCuccOxFOPO0q3id7ccs1yk/4xTP5nEKm5/L1Seyr68d/o3/YDqVojgG9O/OIFnCyfqFx+eQihIMUE2z2YM5uOGGrzBr1Zgw9iOkElLZWIA0NTQLc2c4JwR07NDTLIGYthuYfhKJmIUunbqguCTMMEm6KB17163c77vPOtBkTDsJ2CEbHTp3QVybHNPEtAPNGq5C587daGY6DLvz6ni3dmwuWvbBpipgIYTS4rZoT3mNxtlOaOqk7QSSJJLK9p1ZxpJVucQmbitxbofTaozaPdL8tqVn2li+eA3Gvv86Tj2pP448urfRVryV/6StmMZecGxlOcnNkWYDBv7xt3fxxzteRPdeh+Lo445AWXkJQoGWY7tNIRvVbE6ejOL2vx6J9WuX43vffRUdugwxdiz/yxSQzLPPVb58ZJC0KXTUVLRerIUYmpuq8PvbT6G9D/z8l8/BCfZVv8FrmmK+c+p4t0ZWQ1ZZydchG/eSTybgrr99Bd27D8X3v/MSkqYsW1I+taaNVttLsaNwMXfGYrz/9itoX1mHe+79HvYdWmmuK1xLYiukYkrHOzTHZEB6zY0WnnlqPu7+9/uYPW8FgkURlJW284LpYTzv09tz9YUvCsP/LCtG5aSYKnkzFq3+C+LxevToejWC4Q6ZQpKa7rGvsYTMfcTnxbkjvpBr2Hx8Idew+fjCZueSZAxTYylSMMvWTTVg8aJ7ecZGnz5U2dM9eEwit+LU1Nm1bS1uYfNzhfCFXMPm4wu5hs3HF7RURPaEEUAdWWhqWoxlK/+DSLgSvbpcS2syYkKZMGb4IOubGz7rC5uf24YvbUlGWDKZQF19FTuNFM4+8yBce90hGDysGAGzuLkGVtRWsshGUDjkoKkIHrGo4S75pA6fLFyDBQtr8MnKBjOAm1MU2wk9ruVSkaOa6KIGDzx4B9ZVLTYbY7Wv6Mt2IdLJhvSRD7xyA+rr63Hf/T82c1Ouufp2aqCV5nzacs1Wqz62hS3l36EZtHzlNDz86I3o1LULLr3wFjajcriGgFoWJUUhDB1QjsoORRg2vAdKymTqaGBWZNLyFZojqegbEBVGkAQircBm70aziI09K5hZvyXgUrIVf9JN4PCjDsbcOTPw3ugPMXTICI90fItnu6ExlLVr1+LAQ4chGHAwYfx0tGvbllcoFizcFqzWPRpqVWM/HIeTTj4GhxxyCF588Q2EHYdy3IIlyjTVmKWvBMkflvZekiZkpgaIVLSC/qZaSssgR1JRbulYHlKv9MGNVzY53LrDkCLuMWwsHsMRRxyJmTNm4IP3R2O//TxSaVFG29PBel21ahVGHHggHCeCyZOnoKK8nBeSLFvWs1fCPvKE3gSNGTsBxx1zJg466CC8+fYLCAVTNDDNdyUtAjVlj7TULjWdUYfeDpTmx07qfXNLxQxEeRqKBvgsS9+EyGkWK92O+NsKkw4xkxpUpAmUcuiYbirE82LdMAtys/Ab79vKuUL4uYTZHj+XMNvjbyOMys+yisghLE83bL75sVnfdjrIuvbKeKv3b+1cIfxcwmyPn0uY7fE/55pF36bseqvpSX63UZ6b+7mE2czXzF3vt9LRmyimqQ7ZTA2Q4+mdgNxIRTNVzSxAmkD6cC9jDmkejWzuHfK3EcYb9+Iv2YRM27KjLLzYRnt/o9v8/q2dK4SfS5jt8XMJsz3+tsLQaRshbxEhqcm64kEy+EX3fe61HfFzCbM9fi5htsf/nGveW0jJawNdLWVWbcb+3PBb+LmE+RzfWBPQTHOtN8x01XZN+905rJIbqVDcVEhmF3+jvklL0RaWPNvCjvZZxiJkaSm7ZFyeMtcCKbpMuJZ02ac3v+lnX1zvqNMTmacyz8MDxuuJ4yZus7wUxG0Sv55F4pjSPAcStaWZ03QpCqDcVu/fUfeZtD8tT8E0DDpd2by88nFe2WbSyqRpfm+elxZyGsFI2tLsaYhIZpmDFivPzZzHHdSSMu2UZ43zSqXloZS2CVnXcQZ1s5kzqhSdbLWd4ByXBpAGhY1qrik9PK+88JqZR9HSzoijxR7dG2XQ8Y7Aa0qMlf+Zz5UyTuMX+vPE37zU9dIvsMvGLadjk6bNZ5OmrLlHmjglE4jnt3b/jjjVVzbdbNq8YJ5fi0dpx1UJZbaMdgSKX/WVUrrZdDbJS0s6hypDOClS8dKW/AakEm4lbIu4TBvVKE6STu1XYrYzoPrbJgKs3SCdVnA0b6bkeJyt+J3hZBa6ARsJS6Si2b5iYFXY1sMXzGUOVCGsKgoGC03PvwNQlKaCNx4QkgX+9noZ73TW6VQhnSA/+xgi7XAiQM1Pg3sia55kwqrrze8thMs+k5LZ+MwmTR646m29n9sLM2DJOOykNFkvWv4zCcvfGc5bJoTlKTkNBI3WkiRZbx6uRZz+U+VKVvnMImq135waewGQ29ufjKmtnizG2l7TVIsV1VWIeTp7i0N7e0sQ7YSL6756IdbMmI87n3kEPYYMNAJkay/QFoIe0bEDsB0H3dtVoGOgCEFlZgcG8XW7oAqXBERZrk0Uh6r6OqytWY8Ej9nOjX2sRlFoKM6ESJrxhyh4sbXVuPzks2CFQrjnpWcQqWhjBFENU+EKCT1O9rmCZK8IG1yXyo5oFQyiiGURVO+h+va8vMklK85G+6LcNjGhTxqqsb6hjpGmyFlpjzRbGMrFvElT8b2vXYoBw4bgT08+iHjIRlGWyVsQeryyQAi92ndCqRU0dWyUAVlEBa7PrSE3UqHwxxlqQVMNHp/wLt6ePxUL1q0k82autzCURS2b0jZuY+Gj/0NgRS0qLz8ViZ4VcL1dx1sMMgE0rhOghnRwz4E4a99DcOqgEah0QnkLfBbiEtNgWKZR/ppVsxqjPn4fb8yfieVrVxuNLE42U6M32qG5q3AQmcVJiuokiqWl1ESx8j/PsSFb6Hvluahq5WkrKvNCwwwoZuIOMZEi9uRDe/fD2QOH4+RBB6FDIKIS32Hhj5NAZrPje3ry+3ht/hQsrV3HszKHUqbBtzSoSyO8aB2WP/IKijtUovPFJ2FVKyCsSm1hKIVSksrBfQfj1H0OwCn9h6FdOmgWODcXWxhbkop+MWF5aTZYm40pThtt+oa1+NV//4PJ9UvQoW8HDB+xL+wIaz4Tfrt94YvCEA7V8gjVFYvukfN/iIYZS3HuC39E2Yhe7HmSFFItz6DAmRsz931unHn5km4bNVUNmD1pNupX1uHo/sPx2xPOR++iMjjS4hjEZY9oCIg/twWtTWO70keK8Na6JfjFs/djdWwdygeUYdjw4XxgmXeeqrwxvm3m83N8YdNzhAa3NbYRI3k5CaBkWS3uP/2HcIsDuOx/dyLZPpQJyjyoXDe9f5N4tjiXgy9P0ClpgevXVWHGpOlIr3Rx5OADcfPxX0Mvq5iZZMaoxXghtwE+j4hKTGjzthjrYtTi6bjtpSewAY3ouk9X9B/Sx9uBIRvd5+Qvb1+HPFZ7FVEqH+z7EEo5qBs3H89c+Au03W8ALnj0dqQdF81BCsy24pQvbCvM5/lE9ZpqzJg4C01rmnHRwafhx4edQsJmeSoMXTZ4S+ALNZXspUWNtfjxo//EtNgKHHTWSHTtWo6gmoal11YtC+UglXZQQrUoHrdw7/HfRu30Jbjk3b+jYr++7HeS0Jqqeo2mZugNyBUWWrBYcwxSyRBmz1mEiW9/hOv2PwXXHXkqyqWuMUmX9kKupJKWXs6ynVO9Hlc9+Q8sKWrGaaeORKsOuvtzq6Ng8FZ5s9BMs1HjU0VLNuAvh18NtySA777/H9jtgyYXGlD1qK3loBT09fm86Wvwwesf4DsjTsbPRp6JsBmx1VwLkfo2kCEV1b3enM6oX4fLH/4z6joCRx97JNq2LYa2d3HTUYYofAkrPmVXnKV8yGRM0+xYM2YOHj/5B2h7yD64+OU7UUIbJOro1XJLw2J+gkjEbIydNAsL35+NHx14Fq4/5niENYjLDqslsUWNbSxwHug4lnLx6qyJmFS3DIeediS6dKvg2SSSKXXROwGqpExFGcFReTBjastx9qLSJqWl63TLQKRF8rSbYQWbMHhwd+yzf188PP4tTKleiURGpcxB9DfCSjqIUvsatWAqZrprMPLUQ1FZIYM3U/ot9zAG2fKSU5lqTCdJZ17oKQCzoXLV9h0tCsVPF6DG1H9Ibww+eF88P+0DzGquZr5EKLllQDKhkKqDerbuJ6aMwUq7HkcfPwTtKkiLdhPlVR1gC1EkE1c5SiaVFxFMUmVIstP4m8MfGreN7qQxSFWgNt5zmPiBhwxHx+G98OSMD/BJXbWp03Rm5Fq5aYkcbdEWJHAmIf1HVmsSqXw8Du0Gd0OH7uUsvwYWXIz2t7SCnfDHinFoH4cp8RrcM69gmesgazHMGtRcFfVU3p6Fm9xXsD9GL/PKkAtNFiuKXvv0QBXV83dmTkKzSizTGOVyAgNWRZsxatJ7VM17obyiBDFLQ7WZPz5PS/7J8NKHmCFmPZKyEeYDKE1ZOiGySZhlq1fKyuim9xX8j2lK+F2VrR1FnwHdsTYSx7NTxpnvvUwLzQFGZlVRPFhcX43X5k5GxwG9UNY2zFQ0UZLagdFmJSUt86cvvxPq5JgRvU6OuCxf13sEm6QZ5O+whv8y+fR0wJb7czXnCFpjqAEDaH4tcTdgzKyPTQedlVQj2+aosNgqqWyamvSRqJ1CqCSMCFVIhyqkziZ3Euvq8VtF01g8cTpCcc/EUMqReArLp8xCckO9IRtVnuSw8FD3I9teRcXUmUbrNmXo1rsHZsydjWRmoDiv0mAc9ek4aqN16NuhE1VSG7GdtDaN8qneyqTWGMWSSdNR2sz6JZkERNQs1wVTpgPNsS2Fo4VgZq6kG9G+ojUiHdpgcd16mkS8kGOhKqipBQrvuoY6LKtZh369+jL/RSQt1Z+eVpEZ6S44ssNOmsdk0zXX1mHNlDloRdVFZR2nuVucAJZPnEGy9IitJaGnTLLN2uw+wpSz8jYlCLD9NqZpApoQXoaVi5bIyRZyowZqJC5TD15jddSc+FNsT4s8LdW0JbKzFTADKTuAt+57As/d9FdE19UjxZp66Xf3YuwTL/OyzcrMzG0wwlNoKM6MbZD5GQnaaFMWoRbHXonpptgr5FUazK9W1bNSDgyX0JQ05epdbXHoSVRUsUQCrz8yCs/c9C8SDPWF6iieu/VuvP3Q80i7nvayM2BSYR1Lo3BYLmmzEl3udak3LUYeqVFqsNR1AiiSNaky1XKN5omz8bXcMykVNegoG+97j76Al+64z5BjbHUdnr/xTrzz6LNsX/p2zqJG4zXvloCeVM6FxsYoo4hDy1wmqBWakmARZJtKRqoLii3iVONUsStR01DNWRYEe7EkKy1JZdlKh1g4LcP6m0P5aAoFcPI552H6wy+jYXk1LDeEJW9NRb8OPRFpW+axMrPjqewtARUEicA49apx+nFqF5owJkHyBopzhuJh0VvpMOLMeNp2aYqItlseSsNhOYmIw21bY79DjsTUF8Yg3kQTpC6Jj594A0cdcSLskpKNgtfSkP6ZYMelt3iadRpKBZESW+eYvvfq2ytHQypiaquZ8SZI3qoXRSRRF8G0zEOpM9YUeaXWqrwCXTp2weIx0+DE0mievxrTnngdp597nlnzuaUrWgQbYOUlrQjrkDKqFwMZ+TRKA53GzISWyEpLEFWBodpy0a5fV5R0b09CScJJJlHetxMOOv0YGWIeEZL91VR95AKvnDRWNPCAIWg9qDt7sgRV8wQ6DeuHXgcPQdxoX54g+sgN2YHlBMtxvzOPQ6RHOYIsY40JFvVqj3D/LixzdUwKuefK6i5PKip6i6qb060dRpx5DLtZ9knsxTod0h/Brq3YuyUyhoPMJJ9UcoFlTDmSMAW+vGcHVAwlqQSobalcR7BcO7c1WoNGknzkDpGwmdfD4o10r0THAwcgQa1J448HXnAK7E6tNw5O78GcshuQCusoQNW2MRzAgFMOR3HndnDLHBx28ZloKtJbGZo+Ru00w32Zu3xsC9LuNGzXbMdx9EVnwm4TQaBdMQ45/xQ0OSRxXgu5xq7wsR1IhyyM/PpXkCi2EO7dHv0OH0GCMbSTCbHnYpcnFaMuMpdx2sfdhvRHac/2qBzaB616dUDCTpFIJPgiE1XWnl9hhUC2pIyIs2zbD+6BMqrm7fp3RYeBvWhvU2UnUWvmrY/tQzpgo7xPF7Qd3A1t+3REr337G0ndG7DrkwpdM4W8hCaQFn3b57KT0W3kEJR2bGu0mGA6yEagtwVqCC03or4nwbJYlqx5vYkQKcfKg9jna8dhyNdPRrJV0LzRUklGd3np2HXRxLIrYsfXnbJ6wPnHIk7ZzfMd4W6L3UBszIJ4hjQSlPbhpx6Nfc4ciSgbho8dhzEY+d8+xxyEnkePQFQrILKsdX5PHkxsaRSlLSSsJAadfyL6n3EUmqlpR8xyCHs+dnlSkVjr9ZiOEoEU7HYRdBjeC/EdXdTEh4EGDfU2onxgV7Tp3wlxDdiaHtUnlB2BlUogyY6v/bC+iJcXmZcLtruTPm35krFbKLjZSW0pO4lUIMGeVGtv+oOIhYAIRSSStBNwtW2s3qaJaMgrWjHNx/ZBY4EpdnxabEEz0FPa29io3Hs+dgtS0ZsdCbmd8t75OynXvPHxUThodEXlqvL1lkbwyt3H9sF8xsJyLHI9J+pOmIl4ez52C1IRoxght7R4sOfM2rQ+CgbNas2WbVZDUUPwsX2Qya6/hO05laZmMu8N2D1IxYeP3RReZ5j5sZdglyAVj9M/++fDx56CvU2mdw1Sobq9hduLKsHHno1N5XpvwC5l/nxRke8tFJPPKIY/4lEYZGXLL8/C4EslFe2GpzVS06kQUlVxNE1agfq5VQg2BRDkOU170yfaKTiobHYQSIcQSkcQSmmv2CDCvK61NLRQoMbXWyUjCLoRxEyPoLcZTCNtI0HXKlmE4kQEdspCgn/6amiXgt640IvqVTnzW5QKmtnCyq/ZvzqtfaQDZjX2NkmL12yG1WtfrfSvuSZ8IjoNspoN7Xmv1mvROZVhgue16peWr3AtrUHjOaWl/ZNVTlptwwzUSiz4W+KRXdFMTmnxAs958SVNWC9vSdZHwgryHNPkvVrwSfEoXt2m50qYL59V8tpsS0da9c17o9cSULomx8yrdgkMJYFilonKttgNoTQZRlkijPaNRUZuGph3LbLu8AHj5tm0RISeU8+uPGq9FsoknzlmBfg8enbtk6z1fDynnRe8mkxRhlkqdMrHhgXrUTdjLVLmfm8NIK1Gp4WUWFRMQ/Wj8jbv4YzTTHHvnPLhLZ+aYD4s88pfxzon+WAZZ+rQ85UvjyyNn3E7C4GbicyxByaugSWTITqtFjVqyodItnPQo2c7XvaEzdtIRCG2D1pXLJwgScxbj/fufgYfPvQCPrhnFGY89zbWTZqLugXL0advXwSKS/DJ2GmY9u8XMGvMBCx7fQJWvDkJsz+aiGCji27de6HZCaLpkzV4756n0bqiHMWVZaxgvRrV+wuSVnMc79zzJALBEMo6lSNh5g9kdzrMHVn1VabZsiXrYFWnceGwQ+E4aiYUrpzjS6MqkcBjE95H+/4VqKgo4Tltp61lM4OoGjcX4+95AUvHzkZl326wiyNm3ZWQHUSgOYEZD7+Fqc+/Z16x9+jWlelK/EVGEmwvfxIiNSaVgJaN1FKGmiahnQjVoFU+phGowhlYvmkY9HXsnWdNswwjlGitDMcCgLchlnddX4fr9bPmtRhfzU0Cz7yYr3XN/d7rapuNQR8pem9VJT8MJVEyZeq9zdO1+bNXoKtdjlP3GcLyUJoKvw3wvuws4GV1dXh81jgMHNwdpa1CRpaVhtbbsaJJvP+vUZj+6ljMencC5r4/CXPemYj5H0xFekMMfbp2RyLExsr6DKaTLDM9F+PlsygePbWiUxkFtUCXOaOlG/l/xikt/Zl1XfizkYXu8Ene/92DmPL4azj8gpPNda3BY1qSiomRq/yy31t5dSO69s55ZKWiYN3Rad1bkbZeKik/pu4VgOGzvgmvxdRIXCnW/YyPF+OwDr1xcPd+5jMMfdHvPUvh0RJx5oQQtY7qqUvx4DW3YOajr7NhdcBld/waF/36B6Z3Hv/EK3j93lFsZBFUvzcXY+55EQ2L16N5fQOqlq7Ciren4vkf/hWzX52AYDKExOINmPjP/6J29mL2RF6BqQcwadUnMPm+F7CW11TFjpjcu7TLQI1dvY5IpWbiYnz4/57FuD+OwoaZK6iRUQNQIMpOw7Jq/PeWezH+jv+i5q057GFDiPJeszmYpIwwQsvfepUZt0JsyjqXaRKM3yMbCZ3XWLSlhDaG0wZmgq4qLm0cpx7biAkDSrNRZyB68BaZYjpszNGAy7TiDGK2QTPxNNNJa0qwUWkPoxAbodKUlqNGqbxpMaYw8+9Sw1GqLQa1M+WsKYEp/3wRdW/NhrOsEe6yDWieuxJLJk7H8z//C0ZdfTvWL1xtVkgLsMRdzdrm86nhi26lNcT0ESs7VJGk9KwYj1UWeqqs9me0YzvEZw3yGb2FvLoNG4gBh+9HrVzlo7INsGy1J4WeXfuSaw1mlQHphunGbc1s9sha8iqNPsjysqnBJ9i5xBzWg0hMz8XkFacW3vaOefpLxE5P3syOZSUVVTXhtd/djdqqGlx8569wwh++B/fEfZA4cyhO+fuP8fW7b0KngwebhYQjbhCtKtri7N98H6fd+VOcef9NuPiOGxGghL7578fMzoU2uwUnGUCxEfhPC1fJ6cM5J+YgnKRamVmtzWtWuw4kmlK/oxRKfeHaurIc+x91JKY8N9qsG6sFw9RrLRg9GV179abGVUGzx0FdKIANFK44e6VAKgyrlkJYlUC4muJaQ82HhBtjnFplPkVBDvG6HaVpRReoYhiGc3guQFPAccNANVX29XTrEiiOq8E7aHCYL2p5Uv3DdS7CVSSJtVTvq7W2rfSrAJqYhyQbBpp4rt5CcTOpcB3JZgPV+yZqhUwHJJCk6odhdU9RE9BqPZ+NDJStD890KDBM1EwzQDIrDmDIxWfg9H/ciBP++Quc8+Bv8O2H/oCTLjkPs97+CO/97WmUxh2WmUNipAmeZrk00HSq4nPxeSIs2yCfOcr8uyRsLdkcrkmiJMHOytWyq2z4JIsgfxetd9G+jmfYI/Q9+zgMv+6rrAcXjM4QqeIJ11Fuqyij66gRsb7IGIa4VWfS/QINus46WsfOkemHGkTbzBvrUialCMfhfQHVGesjSO05VK+GzY7TkM7Ol3M+3s6FhEYjIYs/mIhVE2Zg5PUXoOTYQagrjiGiqrIa0VgSR+sRPdB/5Aj2uBRKVoRLtbQpnEC8KAE3HIMzqCP6HzoMgfo4hT1J5qaax4YjIlHPq91VJJ5STaMiEpKONCAthCy7edeiFFUEzQwKSJhypYWngjQ3+x03GEvGTEF8dS2JkUIddzF51JsYNHI/tO5Xzp4wzueTGu6gXSyMpskr8eDlN+Nvp34Xfzv+Ovzn9Buw/NkPEIlq5ILEu6Ye91/8M3z80GsYd+co/O3M7+FvJ1+Ph8/7OeITVmD1GzNx93k/xl08969TbsDc+19DWQNFWL0o81X13nT899KbcPcJ1+OfJzHMWd/HhHv+h1Y1JH5qnm3cCCbe+z88deWtGHfj/fjXqdfj3vN+iOkPv4m/f/WnSM+v5/OFTMWoHpZOmIU/XfQ9rJgyf6fUhzSzUDSFYnZCAe06FkogEIrBbZvC/t85C72OOhCLnvkAVWM/YehSNnoabAs34Onr/4R/nPhd3HPCDbj31O9h4v0vI9AUQOtEEWY/9iYevP4mOGsbqSFTLZN6zGdb9fIE/OuiH2H8x1ORDAbxzt2PYNTP/mDGwrTSfmU0gNo3p+GRS27E30/+Dv52yvW464zr8d4/RqFNlGWZiFCbasZrt96PO0/jNV0/9Tt44ju3IUYTsRXluRXV0U/enoAHWX//YByK5+8nXYdR3/0TGmpqWabST1uApLeBnUIq6pekykma2D8iGE9j7EujkYwlUdyjkjZsHO3YYIrJ6BUsLG2skAjoewl9hxInYbBotMUBew8NtAVYmHVzVmLh5NlSQ0y4JFVw1hdTUaVqhENq46e2aZo6rIhbdV7o/YELAVV/hHa8Bt+kgSRcFz2OOwCh1q0x+5l3+MwRLPxgBpqq6tH3pIMRb9KuBhqtSKKM5RabuhJPXncLIlSDj7/8LBz37fPQddgAPPvLO7HqrRlonS41ZNo8dxWm3vMClq1chmOuOBtHXXIOEtUxPHn17/DKg0/hsHNOxElXnI9uffvhrT8/xl4wZvaJsRfU4JVf/xvR5kYcefVZOO2qC9BvvyEY/fsHseL1qSihFsI+G6nFDVj6ygSsXLMMx19xFo765jkY0X8IEivqMfm/b7NOHNaPg9KohdnjpiBNc7ZDtw58+kKDMbInN74BC1blxfJpDqbMToFJK4lm8kCMstPQxkb3Uw5CIhpDdG09OyXK6cp6PHXD71G7YDm+csHZOPXq83HwMUdg7B2PYTaJJURNuWOfHtgwayUmvjmWcpVC67j2xEpj0TuTYNN+7L7fcGPWOotrEJxTZTqNEH9XfzgfT/74zwgX2TjuW+fgeMZ95CVfQSrE1tIYRRG1jZd+cRdmvfIeRp57Ko6/8jwc+s2zsWHOMrx2499hVUXZjkJ4808PoYh2z3FXfA0nXf11nHrpOSjrUY7qhjp2I97TG+c1i52CndS8vEfTQ6lHpoKoJcdR5BShuKSVIYIgVYxmqdm2w0rwRsi9gS8RAQWxNoYlb32Mpc99hHkPvYOnvnur2Qrh6EvPQIIVESbpmIEHqo16KJWfyEw0o16WSgB/Mwx7KzPyvotBPUqaQs4OEC6JVYJpVbZB22F9sHTiLJorwMLxM2C3LUXZvr35rGwgbJz6UC3SnMSz9z9hGszXb/kRhl15JgZfcTrO++V16NOtD8Y/+Trc6jg1OPa8jgWXDef0H16OIZefhAO+fTbK+/VE3cKVOPq803DYNWdj2FWnof+ZRyJaXY9pYyfBInHPZI+4YdV6nPjDS7Dv1Sdg4JUnYOSPL0HvQQPw2gPPINGcoLnAEqdr06MTTr31Wgy74iQM+8bxaH/gAAw4bD/MfG8sVfxmlj8b7NomTP/vmzjigtMQ6tgqUwqFhid3HiQRlD72KsYkplyE1Omwg5LunCSh73f4fnDKJHssU/ZQHz3xIqoWrcRpv/0+Bn3/fFR8+xQM+vWV1KAPwZhRL2LputXoccA+KC/viGWso0SClcTnr1q4BB+PHoOBh7NTKIlQO2GazEY8QN+2kaJm/cEzr6K4tBRn3Hodhnz7RAy+6kTsf9UZGEnisFpHsGT1OswbPw2n/uhqHPr9b2DEN0/B8GvOx/k33oAlE6ZjzZwlKGmmmUnTsuPgPjiEncM+l52GXtecif1/dQWJugufkC2L+TGEohLYSWK/c0gl8zDy1MzZZjzNgdoJYinahgFqI8oM+10SiUhGf/L16lKvyJrX1ePZ2/6Gx398B966/QH0PHAozvvbT9Hz/GNIRmlqMDJxlIhNodAwmwbL6GsrDCXO/6SlaEPBCDOxC/LKRpjNxOgsCuGx3zwX06dMQs3oqZj+8js48tKzaP5JSGX2aGCXhBxNYM3Hc1HaEMC7f30Co37wR7zy/T+zR/sHiXcDFo2fhIb1682Ao2p8+JkjgU6tjZnoaZAplHZoi/YDerAsU2iiaRBoRX2RZkLNnE9YtrTx4zRPy1uhz4h9Wc4p1Npsep3boc/+Q+DWNpo3SipjaVqhytYIdqgwH9VpUHNdSQxDLz4ZG5avwrI3xjMfDqa8/B7CtFE7HEsTN6iMfXkVIlkJI4R0dSPSSXVnKZQkUvjkg1mw4wFMICm/cM3v8eFVd+DNG/4Ia8F6NCxci7rl66mcFeHAs47DnDfGIT5/Papp6sSnLEWipgGH8LwGe723bCKVNB1lkOXavGY9SjtVItijs9mQThv1k26RDodIzDbm/O8DWKujmPzcO3j8J6zPG/6Ml264BeMfeR6pJnYQSGBDEVB2QH/Mfv0jPHXVzRj9i3/BmbEelbUOSZFyQflX7apkd6a87xRSUYHK6bnMVqUBGyU9OpBPEgjW6V1+kJqEXpFpjF1zUeiMmcNeg4Wj8YDSLuW4+sG/4Luv/gdXvXE3zrz5GvSkulpbwrgZud6epBhvtLbZDNoGDH1obgtd1GUPJV2AzUeqPA+Un10V6l0EEUcFG26brh0x5+k34G5oRN/h/RhArKiHprDyWaSbaSP9VDKFDWsp8OtqULu6CjU16xHq3Rb9j2YPXBw0t+jJ3bYRo915bzek3rlIhW0kI+R4mpLa3S6td7CMP0ATVbtAqszUNJKZr5glrLrTvKJmp6B8qHzVK+rtSYIaUUL5S2kd3BgqDuiH8t7dMfutj1C0Poa5705A54F9UDmkL+tYb410t3LX8jVjtEL+qcy0+Zc0lRIy7ITnXoNL0yNB8yioZ+fDKFx9XS3q1m9A8+pqam8bEC0NmvGXktIikoSLrocPhs1yWPneTN4PjHnweQw5Zn+U9CknsWphdpWWyop1xLJJkZTTdGanSLZAaXdyCDAkSSeRdrF+6QoE2OkmGhpRX1WNDazPBhJRfSqK3iceiGB5CaKhNM781bU4+TfXoDHZjMXTZuP/feN6vPmjv8Da0EQtjLlnsSr1li/VT7HTScVoH0z1gAtOgVVeTJYdh9ZNvM6LSV6VLIcT2oGQQl8fI8VoIhB5nCZ7sGsJ0n3boKFnMerK0mgOxRFkAyjmveGuHRDp2R6z3h+PCE2pEDWWoAY+6VbPXoB4o/ZCdpi2t0WlJ8K7NpTHYEUJhpw9Eu+/+wH2OfFwlA7ssrE8vUFpi9oFy66VhYrD++PSe27GBQ/fgrMfuwXnPH4rLn7od/jG//spIp3asRzZkKTNmVrQi2FvzMlMmmO5iCp0Xj21BoZ1JiZzjInZMi/ZQ2qejEzMItZTKXtz9cjSAOVMvhhMdahGqVeeemOlXfLSrWyMvOhsTBszHstf+hDLZszB4MtOpzbmpbezoDcixjFVkbYQZEtOrtiAhWOmoHJAT3Qb0o9meBx2mYNWvdvjK3/+CU576hYc+dxtOOHpm3Dys7fiqw/cjPaDZGI0obh/B/Q98VCMJ/Fbs9Zhw5K1qDhoABKt9cpYZax0vLkrmmOSCjkIti6BE02irDHOMpI5xhAkbI05iqD6nXEEEh0jOPH6i3D5/b/DuU/+Dmc//jt87bHbcdH9t6Fr/15orYXJSyxUfuNInPfQb3Hxk3/Ekd+/FBPeeBvL5y009aB6MU/J/1Q3OwM7hVQ85c/rg2RPSnjb9e2CYecdiw9eeA2j73wY9spmlLrFaMPuMrVoPd751xN441+PIkiJltUrYS+Os9dkz1pKDSfA3k0xa+AryMoo7laBHkfuh5Uz52AFTYFWsSDJKcjepRZv3PsUyrt1wpBD91fNmc3ITWZ2MajHVMXrWdVHShgbQi4Gf/0kXEWBOex7X8eGCMWUYaTZsbszPVGMPefIr34FM98agw//+zKKmqlyOwH2uDY+njIFc9YsRdSRUZjRbNg9hihtmlcs7dDMPGb6EnjVjua9ah9gcgcJhblhmbXqU4HG5gaM+r974FK7bB8LY/Z/38K4l95Ez4G9YWu6BSGtSXGHXc210PiV1+vb6SR6DR+Adp074K1/PYVgZRuUHzQQadal1+gKDzMmxyczVc3/NJuYSjHsgEPtKkyyY+e0tBqznn0HD/zsD1i+cBFGnH0sWnerpAaSwkmXn4/1nyzGxP88jgpqV11dB0Pq2DHNWoil06exlGI03V3Eim10OmIomtfX4ZVfUUsodTDs7GOolXv1oykNZqSPZS0tL83OrYP2N54xC2/f+RhCzdTc40E4LNf5H880QwL7D+iLzh0qMfa+J1E3ZT4c5plGJYqq6jD5nfextrEO6xn/tImT0XpFNcpYWeHiCFq3KoGdtBHXes0kp41auflv50A2QotDU78FmpSghcLKSMIKB3D49RfAjUUx6b7nsPC18TSJOvFaAg2LlqOurg4n//JKJFiY6SCJpkRjJjbWsWKor5hNxDUd3DQCnrNCCRx7wUl4buJsPH7db9G1dy+4oQDWr1uH6JoanHvLd2F3a8VewVs1TvfuSvAmkolU9PqcAqGXKRQEmQ/BighdVy8gm7yTiiBZSkF1kuZtWH0whqGnH4rFU+fglb88hJnPvo9UK6rmvLdm4WIM/cGZaN+7E8ufuiBNnESIAszeuZrkWsbyC5B8EsUO9JY1xkTVkzsknhTPBamy28xTjzNG4Pg1F2L07Y/j0Tk3onVpCRbMm4l2Rw/C8b+9BklN2WU9xCPMF02pIEmllqaUZ3PRxmc+w73L0ePgYZjw1+dw/B++hVZtQmYqgMzcwsPQsmlLmhUss0OTysLJNCbcPQpTXh/DK2k0LlmNJnY8kR4VOP3On2DImUejJhyjFPK5DxiE/a44G5MeeBHL3p2KcPt21NDSWLR6IfqdfAh6De3Hx5MsJTH42EMx8a//xbKxE9H5W4fBrgirJKlJhxiGOmGQmneRzB3WL2XvgEtOYbrrMOael/DJ5MUoYp3UNm9AvG0QA++4GY3dSjHyz9/BCz/9K+678iaUk2QSxQkk1q5FTe0GnPvvW9CRWvuUO57C5KpmlHXuaMypVdPnoO9hQ9CuXy8z1OANQ2c0lp1ELF/aNH19N4KyYgw+8mAMP/ZwxGMxpOob4JBsBp56BM648Rq0ObA/GtmzhCJhVPTqjE7DqZYW0dRRz8e0zcxQOdmk0lY6lGPYScehrEsFatasRhEb6T4j9sXJv74WHQ8YiEYKfpr51qCi14vlB28ykZ66ZabpywyR3V3khFDG5203rB/SIWktn4XejmnD7T7D9kGYjUGDodo8eJ9jjsA+Bw3D+tWrEGTj6dSlPY7/2bfQ/8jhSFEdse0Q0uWt0fWgfdG6YxkFPklHgSdBVLLn7Di0N0LFNBn5JI4TRlHPzuh92FC06tLGmEe99xmE/gfthw0r1yBZZGPfrx6P4354OaorQyiinMQ0MFgSQad+3dBhn24UE5lRJCfWtZt2aK4FsGbuUlTPW4pjrj4PTrfWZiavFt9SmapXLeQ0/eIyMbMHmTo2y7akXRu0HdAdrbtWsuF1w5DTjsKJ37sMB15+Ntod0B91QX2L430flQiF+LxDcPCJx6C6Zj0SzVFY3csw8ltfx0FnHoekoqcYa8q+FSpCUadK9KKcHXmZ9lGioOq5KTNGOiIhdBrQA+0HdqV2Q3nl78EHjUDPIQPQuGIN6z2NXqyXU6+52AyibyD5lHVtjwNPHolUURDRmlqgtYOhpxyO8374baBXBcvTwvAjDkJTkMSxthZl7AgO+MapOOonl8FuF2a5ypTis1AWpn+8GIfvpGn6FgubSWwC2WHiDJ6VW5uK4esP/AXNfSI4cmQfMj55jwICW5/x5VLjW4cjQ52P1ORImAIopcpW7FIoebpB8wjsJB8+hVBS06Wpqmpgi6pOc4A9N88rb5sSg4qokZUYZZylPC6SJmLIg6ogH0rfohhCofBLCFSon33wbUMDe8Zn3GPfnQlrgYuXLv4+wrTB9KJctJITmP85TY04/e+3YfBpAzBwYKURAIt6l95WRVgOAfbsDXxe7dms3mZT0ApnWVEbIJFGWVbm1SHzpA/czIpj5pnV1ixqCDSFpDFQw5HGkM5M2w9qkFyaC9OLWUGWu3Ivs1LbyKpwQ/zNZq0wjM2l0Hv7HYd4r4iHhEFtRFulpqWC8ncDtUqLKlYJ68qiRhiVHsw6kpZirW2CvaYO99/4J7SubI/L7vo5VkaazBuoANMxPaqbxkujPsIhTn/87exvoJix6d82IbONBKk4Pli+HGc+/Secdf4RqOhamgmQAcsmTWKVlitlUHLRYDoE/sks4TNKKwsy/6WUT8loTYgyRTJ0+Ox6zRxmmWurXfNhprQO/im+ZlvPro8VNV1ebUOlzHpgXciAL6LNrQ8n43YczTRN4wqt+Cj7uk/WrIZu9cFggvF3aNYnDja1UO9tZoTOkdnvJo1Z2ciy1Z0RppfWN2EsA9VCM+U8zjiKUnHWJdVSuxkJZuex+0bjx0OOx/VHnMK2xPJiu1PRtoSOmGMrKDwkuFoTVUKcoNDXUIVfHYlifThuXmmqygMUTAl+mg2rIRRHgkSj+SieqfBZaaNIoBWFvHM8gTaxOIUmTmFnJbGC1TADVOxFKHpg3ZsvobQ0lH8JooS6MZA0PabIc2sVpMnucSdBLY7lpDC81WWPJPKQuEqgKpJxVFKa0ixLfV3sLROpHpgaIZ3XIERjMh8TPNZLTZeNhSYQCTfGsotRIOMsO/NNicqMpKxvwkMUe93TEIxjQ5h1x7xEKZ1h5t1hPE2OJizqHuWeZg9J8n9/ewB/uOC7qF63HiOv/wZqHeVNA5OkYzaInQKWg4jTZRlpIDZJF0p7ZWaTlEJstGF2OKKHZrbSqiKWAZ8tQLnTM6tRR5nvBM9psqXMbnVamp9js2zYnEmsMWN2aMawuNlMwOS9UZ5vDLLe9JaTJR1WXbMMlQctNi4Slsy2psbePppANVt+VShp3sY5rINQiqScZtsIuixflRs7XJnGlPmyeIx1xfjpihhGbUCE48nUzseXRipNNGvqqD6SHlBKYSyheBexgtXLiRxku+pNTU1IPYlEX3/61kENRAK+ZRcmBm9QoVNKE6x0DTmKSIrI7poaHWJPwfpmg9r1SIUP6XnMmN67iGY02CnC2BzqSTX2IrLIDnIqnIRMxNFEwqil4Ok7kyDPKYRIQVCc5hzvNZOxmHCI54pNWuqFVdrqxTKkz9yovOWk4UUYzgxOmkakr6qBEp7X/CJdL9I8D+bN+608qecGDrzgNJz1x5/g0rtuRtk+XczrUEGDxHImkzsB0hY0ttJI+dCHkF6jV7mRJFiIkqEmEqK0LL0BK9Yz09dfk9m+RBqIMusxocpPM2b12r2IZWM6Ll6WfPLRzXlpYEpDg9aqBw3WRliHRXRhyqbqxOL1KIlM8l7FQtWbPZn5xYxPC0tESWza8sNLUQPpntM96yjzyk8R45AJXc+CN1+Jf0n40khFdp3mPGlUXEUqZpevwtOXoBJKzTEJpT3VXKqi/tQQVKhbe2MgdqYBwJapAVyGkrpLPx5gX0RVUqYFT5l7t6SkLxlG+5J5IpWYDZKCbEybrQiH1GL1dyoTQ5B8GD2PZqrqvFHn+VuCnZ38J0EWEqYMeI43qXS8rSS8stGZEMPJaXDT3XieDYPnvPgUSiaSxkuUmso7yHtI6qwbfT2rP5G/BDzBXrbJjqJiSHf0Pn1/tDqgK+Ihmky8rrciyrs6AMOmOwGanKdnVxmHmL6eT5Jj5MvImMwSlZfKSV8aayKlmrIaLomB1+SUcZGHnrMoUzaqF+9P9eHJmOpH5euloXrVzV69yKmMm0lWMll0noYQtRCVp2RZMVCv4bFo6dM6Ut2orPUwusfLi8J59CLo3i8HXxqpCLk8dr5F8+UVZeEh8dseqAyybnuwrfu+KO7Py7N6es3Z0N/uis975u0t563h88r2i9IoZPqFwJdKKj72HpiZpHSbvxfwsefBJxUfPnwUFD6p+PDho6DwScWHDx8FhU8qPnz4KCh8UvHhw0dB4ZOKDx8+CgqfVHz48FFQbJVUshNwNKPAOCuBlK2pvw7Sdpx3xc2sxL0VZlZjSrMo9c2FhYAbgiZ75zwDI21DU8Ad6Bscla8+DNOiA3snVBYlScqVmcWqaen6iDL30tAHsGZLCldba+hzjLj5wG7Xmxa2s6BZ1ilYdhOP9TmFY9qvvjTXpwPZVq9ZuC0xF3GrpJIlE8GrFu+bGW/isHKhjG711r0CmuaetlkWrBV9PGYWU9Z57/K2YQpVoRPQB3zedzm770zTHYWRcxKL2fJTjcEscZk7TLmrtbCj06p+IqlEoCW+v919oK1RpQyYhpt2jBKgQ+/iZ7yCY0tmUN1kD3mgANpiUQsk6XsIfWKv7xj2ZlLRN9S1LssmkSkFyq/5yl/HOUBKnukxVNZp7ZcbhFa6z5b73gaVRSwQJLnqKxYWJgvClE+OEH2YeuB/Zm0TlmlTILTXlqegMpB0yumbJi3jIO3NcAyvqwtrqW5sC2aQwOujJCWsKdVaZ0JLOmrTaq3QpUrPZnZvg8pDbkNtPZYuXIlB5Z0R1gd9LAqVRs7tgIWrD/S0b0y8LopUiuopwpmLex/04aeLCJobE0jUNqPYCbIh5EEJCiqCJruUB8OoRDFWrqgi0WudFspqPnHtEZBWojYaQNI0aJrrce2nRXKhVpzVWHQpd6HNHVswQ5bBTD2R9UPsQXt364Wl85egZm01tMufaUVGZd87UV1VDayP4pz9jkQrlpQ+lMtHblWp7cIlOHzf/TB/8kygkSfVIvZSaFEphyK/bP5SJNY34fj9D8uMieQII6w6cDGgvALH9BmKRdMWIBrXGjEps+Lb3gRjYWQ0FYvEOnPaTHZgAfTp3otllTY7SmzUVHYGqSgNibdJy7ERYoV/9YgTUMZMjfnoY1RFafPq42yXlWXWjtjDndHbaOOTRDXgVVPViPFvjMOR3fqhf4cuptrUJxjWzwOldhBnDD8cbeotjH7jPdTHZEIxBdrCAaardTm8tTn2LLfps336jMCiZWsw84PJOKxLfwxr3yO/NVZY9qwBI7NhluuJww5G8doGjHtvItIJmUHSsE2/vUV+9kSnMtbaOulUGHMXr8b0iTNwzD5DMKJHP2N5WAGzYMWWjb9A2HI5ya1A+7c8N3MSfv3mw6jp6OCIIw5EpzatoUVt9nRoMSSJazoVxLwZC7Ho44XohBL84ZzLMKJjT5RKcyPhaMB1IxlvCyo2NpoGdikvzPkYN738MFLdW+GAg/ugY2UH8zWvASMTpe1JUPkYYTaiQy0vlcLsOfMx48NFOLSsG2476woMKq3wNJUcB6qyZaRVLakzYgPr7LHxb+HWt59DRe8OGHroELQtL2b9JCiz6sFzqqXdFmZVxUQSE2YtwpyJC3Bah8H43RkXo0tRKUW15Z89J1JRrcXIfONWL8Sdbz6L8euXoTnMykl5L/4Uwfb6Qq5h8/GFXMN+kS+i0OpdIT5rScLCYb33xcXHnoKDy9ubXeBsSbQ2zuINeQ3WMnIt9lNvpTB6/nTc/85LGFe/GrYT/JRUCGNt0t88X7n6Qq5h8/GFXMNu7mf7Ipkl2syriOX4la774Irjv4J+rcrNanKCkX+5bWAjqajY6LSncS0PHps6ES9PGIM5VctBhcWUZZx1pWCb5mdHfCHXsPn4Qq5hN/d15KTiqExFcOaAA/GdY89Al2AxC4hXbS9ESyInUklmeusATaE1TU34aMkiVLtR1qaWV96zodfHEkatbNa1rBUO7t4fEZaFIwoh2RjJZ9frel6mUr8Y2QLXYl861r3rmhvwwbIFaGhuZL0bg8qEUQPIht8ToPLJqt2a76Oes2tFexxMrS/C5yYfmABGATRhtg2Vj5y5N8MYejWdJN2sijZgwifz0UBz3WwVw85xzyrRLaGxlIAVRP82FRjRuSsiWvWQZx0+fy7luaPIzfxh5UitDClLrgTeq7uAalE/zHsqXtseX8g1bD6+kGvYL/CzcqpGbvYtMj9oDjnSSzyIV3gpvwrTDZ/xlUK2zyVMN52JNYd8fq4v5Bo2H1/INezmfva5NhE97Y3jHXieCe4d5oRMjBuj1BgKkgnWk7fEojlHpto4ZvtF+cvHL2Rcm/pCrmE386UAaHnWgOm1tNuBdldwTPvNPn5LIjfzh5qKqS3mKEnVXHm3ZZumA5/3XDn7Qq5h8/GFXMN+ka/9aMUq2u/KrODPn/zfvADjoTk2YynZH7ngU8nfGIcOUiIswvDJJpHlks/P84Vcw+bjC7mG3dz/FJ/+0J7M2V8SfBOO4XNGJv6sHqI4vM6A0fBAez2ZNsbKUlpflL98fCHXsPn4Qq5ht+bzfz6/Ns5zSSdBFgadBMtca1nkRio+fOymkHDvhHa0iyLbtHduCewMbciHjy8Ney+hCHr6nV8CPqn48OGjoPBJxYcPHwWFTyo+fPgoKHxS8eHDR0Hhk4oPHz4KCp9UfPjwUVD4pOLDh4+CwicVHz58FBQ+qfjw4aOg8EnFhw8fBQTw/wFVkhFpfmw80AAAAABJRU5ErkJggg==;" vertex="1" parent="1">
          <mxGeometry x="923.3499999999999" y="3665" width="399.4" height="310" as="geometry" />
        </mxCell>
        <mxCell id="n3VB3tNcQO9KhlttXWaY-31" value="Benefit" style="swimlane;childLayout=stackLayout;resizeParent=1;resizeParentMax=0;horizontal=1;startSize=20;horizontalStack=0;html=1;sketch=1;hachureGap=4;jiggle=2;curveFitting=1;fontFamily=Architects Daughter;fontSource=https%3A%2F%2Ffonts.googleapis.com%2Fcss%3Ffamily%3DArchitects%2BDaughter;fontSize=20;" vertex="1" parent="1">
          <mxGeometry x="-540" y="2690" width="480" height="380" as="geometry" />
        </mxCell>
        <mxCell id="n3VB3tNcQO9KhlttXWaY-32" value="Lane 1" style="swimlane;startSize=20;horizontal=0;html=1;sketch=1;hachureGap=4;jiggle=2;curveFitting=1;fontFamily=Architects Daughter;fontSource=https%3A%2F%2Ffonts.googleapis.com%2Fcss%3Ffamily%3DArchitects%2BDaughter;fontSize=20;" vertex="1" parent="n3VB3tNcQO9KhlttXWaY-31">
          <mxGeometry y="20" width="480" height="120" as="geometry" />
        </mxCell>
        <mxCell id="n3VB3tNcQO9KhlttXWaY-36" value="Package and ship application&amp;nbsp;" style="text;html=1;align=center;verticalAlign=middle;resizable=0;points=[];autosize=1;strokeColor=none;fillColor=none;fontSize=20;fontFamily=Architects Daughter;" vertex="1" parent="n3VB3tNcQO9KhlttXWaY-32">
          <mxGeometry x="95" y="43" width="290" height="40" as="geometry" />
        </mxCell>
        <mxCell id="n3VB3tNcQO9KhlttXWaY-33" value="Lane 2" style="swimlane;startSize=20;horizontal=0;html=1;sketch=1;hachureGap=4;jiggle=2;curveFitting=1;fontFamily=Architects Daughter;fontSource=https%3A%2F%2Ffonts.googleapis.com%2Fcss%3Ffamily%3DArchitects%2BDaughter;fontSize=20;" vertex="1" parent="n3VB3tNcQO9KhlttXWaY-31">
          <mxGeometry y="140" width="480" height="120" as="geometry" />
        </mxCell>
        <mxCell id="n3VB3tNcQO9KhlttXWaY-34" value="Lane 3" style="swimlane;startSize=20;horizontal=0;html=1;sketch=1;hachureGap=4;jiggle=2;curveFitting=1;fontFamily=Architects Daughter;fontSource=https%3A%2F%2Ffonts.googleapis.com%2Fcss%3Ffamily%3DArchitects%2BDaughter;fontSize=20;" vertex="1" parent="n3VB3tNcQO9KhlttXWaY-31">
          <mxGeometry y="260" width="480" height="120" as="geometry" />
        </mxCell>
        <mxCell id="n3VB3tNcQO9KhlttXWaY-37" value="MicroServices:- immutable&lt;br&gt;- lightwaight&lt;br&gt;stateless" style="text;html=1;align=center;verticalAlign=middle;resizable=0;points=[];autosize=1;strokeColor=none;fillColor=none;fontSize=20;fontFamily=Architects Daughter;" vertex="1" parent="1">
          <mxGeometry x="-480" y="2858" width="260" height="90" as="geometry" />
        </mxCell>
        <mxCell id="n3VB3tNcQO9KhlttXWaY-38" value="" style="ellipse;whiteSpace=wrap;html=1;aspect=fixed;hachureGap=4;fontFamily=Architects Daughter;fontSource=https%3A%2F%2Ffonts.googleapis.com%2Fcss%3Ffamily%3DArchitects%2BDaughter;fontSize=20;fillColor=#fff2cc;strokeColor=#d6b656;" vertex="1" parent="1">
          <mxGeometry x="-130" y="4180" width="370" height="370" as="geometry" />
        </mxCell>
        <mxCell id="n3VB3tNcQO9KhlttXWaY-39" value="" style="ellipse;whiteSpace=wrap;html=1;aspect=fixed;hachureGap=4;fontFamily=Architects Daughter;fontSource=https%3A%2F%2Ffonts.googleapis.com%2Fcss%3Ffamily%3DArchitects%2BDaughter;fontSize=20;fillColor=#dae8fc;strokeColor=#6c8ebf;" vertex="1" parent="1">
          <mxGeometry x="-85" y="4270" width="280" height="280" as="geometry" />
        </mxCell>
        <mxCell id="n3VB3tNcQO9KhlttXWaY-40" value="" style="ellipse;whiteSpace=wrap;html=1;aspect=fixed;hachureGap=4;fontFamily=Architects Daughter;fontSource=https%3A%2F%2Ffonts.googleapis.com%2Fcss%3Ffamily%3DArchitects%2BDaughter;fontSize=20;fillColor=#d5e8d4;strokeColor=#82b366;" vertex="1" parent="1">
          <mxGeometry x="-40.36" y="4360" width="190" height="190" as="geometry" />
        </mxCell>
        <mxCell id="n3VB3tNcQO9KhlttXWaY-51" style="edgeStyle=orthogonalEdgeStyle;rounded=0;sketch=1;hachureGap=4;jiggle=2;curveFitting=1;orthogonalLoop=1;jettySize=auto;html=1;exitX=0.5;exitY=1;exitDx=0;exitDy=0;entryX=1;entryY=0;entryDx=0;entryDy=0;fontFamily=Architects Daughter;fontSource=https%3A%2F%2Ffonts.googleapis.com%2Fcss%3Ffamily%3DArchitects%2BDaughter;fontSize=16;" edge="1" parent="1" source="n3VB3tNcQO9KhlttXWaY-41" target="n3VB3tNcQO9KhlttXWaY-38">
          <mxGeometry relative="1" as="geometry" />
        </mxCell>
        <mxCell id="n3VB3tNcQO9KhlttXWaY-41" value="Images" style="rounded=0;whiteSpace=wrap;html=1;sketch=1;hachureGap=4;jiggle=2;curveFitting=1;fontFamily=Architects Daughter;fontSource=https%3A%2F%2Ffonts.googleapis.com%2Fcss%3Ffamily%3DArchitects%2BDaughter;fontSize=20;" vertex="1" parent="1">
          <mxGeometry x="199.99999999999997" y="4092" width="120" height="60" as="geometry" />
        </mxCell>
        <mxCell id="n3VB3tNcQO9KhlttXWaY-50" style="edgeStyle=orthogonalEdgeStyle;rounded=0;sketch=1;hachureGap=4;jiggle=2;curveFitting=1;orthogonalLoop=1;jettySize=auto;html=1;entryX=0;entryY=0;entryDx=0;entryDy=0;fontFamily=Architects Daughter;fontSource=https%3A%2F%2Ffonts.googleapis.com%2Fcss%3Ffamily%3DArchitects%2BDaughter;fontSize=16;" edge="1" parent="1" source="n3VB3tNcQO9KhlttXWaY-42" target="n3VB3tNcQO9KhlttXWaY-38">
          <mxGeometry relative="1" as="geometry" />
        </mxCell>
        <mxCell id="n3VB3tNcQO9KhlttXWaY-42" value="Container" style="rounded=0;whiteSpace=wrap;html=1;sketch=1;hachureGap=4;jiggle=2;curveFitting=1;fontFamily=Architects Daughter;fontSource=https%3A%2F%2Ffonts.googleapis.com%2Fcss%3Ffamily%3DArchitects%2BDaughter;fontSize=20;" vertex="1" parent="1">
          <mxGeometry x="-190" y="4100" width="120" height="60" as="geometry" />
        </mxCell>
        <mxCell id="n3VB3tNcQO9KhlttXWaY-52" style="edgeStyle=orthogonalEdgeStyle;rounded=0;sketch=1;hachureGap=4;jiggle=2;curveFitting=1;orthogonalLoop=1;jettySize=auto;html=1;entryX=1;entryY=0.5;entryDx=0;entryDy=0;fontFamily=Architects Daughter;fontSource=https%3A%2F%2Ffonts.googleapis.com%2Fcss%3Ffamily%3DArchitects%2BDaughter;fontSize=16;" edge="1" parent="1" source="n3VB3tNcQO9KhlttXWaY-43" target="n3VB3tNcQO9KhlttXWaY-38">
          <mxGeometry relative="1" as="geometry" />
        </mxCell>
        <mxCell id="n3VB3tNcQO9KhlttXWaY-43" value="Data Volume" style="rounded=0;whiteSpace=wrap;html=1;sketch=1;hachureGap=4;jiggle=2;curveFitting=1;fontFamily=Architects Daughter;fontSource=https%3A%2F%2Ffonts.googleapis.com%2Fcss%3Ffamily%3DArchitects%2BDaughter;fontSize=20;" vertex="1" parent="1">
          <mxGeometry x="330.53" y="4320" width="120" height="60" as="geometry" />
        </mxCell>
        <mxCell id="n3VB3tNcQO9KhlttXWaY-49" style="edgeStyle=orthogonalEdgeStyle;rounded=0;sketch=1;hachureGap=4;jiggle=2;curveFitting=1;orthogonalLoop=1;jettySize=auto;html=1;fontFamily=Architects Daughter;fontSource=https%3A%2F%2Ffonts.googleapis.com%2Fcss%3Ffamily%3DArchitects%2BDaughter;fontSize=16;" edge="1" parent="1" source="n3VB3tNcQO9KhlttXWaY-44" target="n3VB3tNcQO9KhlttXWaY-38">
          <mxGeometry relative="1" as="geometry" />
        </mxCell>
        <mxCell id="n3VB3tNcQO9KhlttXWaY-44" value="Network" style="rounded=0;whiteSpace=wrap;html=1;sketch=1;hachureGap=4;jiggle=2;curveFitting=1;fontFamily=Architects Daughter;fontSource=https%3A%2F%2Ffonts.googleapis.com%2Fcss%3Ffamily%3DArchitects%2BDaughter;fontSize=20;" vertex="1" parent="1">
          <mxGeometry x="-340" y="4320" width="120" height="60" as="geometry" />
        </mxCell>
        <mxCell id="n3VB3tNcQO9KhlttXWaY-45" value="Docker Client: CLI" style="text;html=1;strokeColor=none;fillColor=none;align=center;verticalAlign=middle;whiteSpace=wrap;rounded=0;fontSize=20;fontFamily=Architects Daughter;" vertex="1" parent="1">
          <mxGeometry x="-11.43" y="4220" width="152.86" height="30" as="geometry" />
        </mxCell>
        <mxCell id="n3VB3tNcQO9KhlttXWaY-46" value="REST API" style="text;html=1;strokeColor=none;fillColor=none;align=center;verticalAlign=middle;whiteSpace=wrap;rounded=0;fontSize=20;fontFamily=Architects Daughter;" vertex="1" parent="1">
          <mxGeometry x="6.5" y="4310" width="117" height="30" as="geometry" />
        </mxCell>
        <mxCell id="n3VB3tNcQO9KhlttXWaY-47" value="Server&lt;br&gt;docker daemon" style="text;html=1;strokeColor=none;fillColor=none;align=center;verticalAlign=middle;whiteSpace=wrap;rounded=0;fontSize=20;fontFamily=Architects Daughter;" vertex="1" parent="1">
          <mxGeometry x="-22.86" y="4410" width="155" height="30" as="geometry" />
        </mxCell>
        <mxCell id="n3VB3tNcQO9KhlttXWaY-48" value="" style="shape=image;html=1;verticalAlign=top;verticalLabelPosition=bottom;labelBackgroundColor=#ffffff;imageAspect=0;aspect=fixed;image=https://cdn1.iconfinder.com/data/icons/DarkGlass_Reworked/128x128/apps/dolphin.png;sketch=1;hachureGap=4;jiggle=2;curveFitting=1;fontFamily=Architects Daughter;fontSource=https%3A%2F%2Ffonts.googleapis.com%2Fcss%3Ffamily%3DArchitects%2BDaughter;fontSize=20;rotation=-45;" vertex="1" parent="1">
          <mxGeometry x="25" y="4450" width="80" height="80" as="geometry" />
        </mxCell>
      </root>
    </mxGraphModel>
  </diagram>
  <diagram id="1VOIiPGpiIr5kRGeU_-F" name="Trang-2">
    <mxGraphModel dx="1420" dy="765" grid="1" gridSize="10" guides="1" tooltips="1" connect="1" arrows="1" fold="1" page="1" pageScale="1" pageWidth="827" pageHeight="1169" math="0" shadow="0">
      <root>
        <mxCell id="0" />
        <mxCell id="1" parent="0" />
      </root>
    </mxGraphModel>
  </diagram>
</mxfile>
